<svg width="166" height="100" viewBox="0 0 166 100" fill="none" xmlns="http://www.w3.org/2000/svg">
<path d="M26.8874 77.5447C28.6757 74.2996 30.5492 71.088 33.2103 68.4907C35.0838 66.6628 37.1428 65.0083 39.217 63.4056C40.3544 62.5266 41.4736 62.7851 42.4651 63.8253C43.6847 65.0996 43.5843 66.4013 42.1214 67.3867C38.411 69.8806 35.3332 72.9949 32.8697 76.7114C30.8837 79.7101 29.506 82.94 29.211 86.5774C29.0194 88.9466 29.6277 90.1814 31.7809 91.2276C34.6154 92.6053 37.6659 92.7452 40.7072 92.3772C42.9578 92.1035 45.2053 91.6169 47.3799 90.9691C50.628 90.002 53.8244 88.8493 57.0118 87.6814C57.6048 87.4625 58.1097 86.8664 58.5355 86.3493C59.8493 84.7526 61.0871 83.0921 62.3979 81.4923C62.7447 81.0696 63.2282 80.7503 63.6783 80.4248C66.9843 78.0283 68.9216 78.5818 70.4058 82.3409C73.1004 82.8214 73.7451 83.7186 74.1344 87.5415C74.18 87.5598 74.2348 87.6054 74.2713 87.5932C76.2177 86.988 78.2402 86.5501 80.0863 85.7228C82.4129 84.6796 84.3411 82.9826 86.0017 81.0392C86.3636 80.6164 86.5309 79.993 86.686 79.4334C86.9262 78.5605 86.9749 77.6238 87.2912 76.7844C88.0424 74.7923 90.144 74.5307 91.4457 76.2278C92.3337 77.3896 92.3337 78.6578 91.7863 79.9626C90.8283 82.2466 90.8039 82.2892 92.8264 83.6C95.7187 85.4734 94.9584 85.7411 97.726 83.3536C100.083 81.319 102.653 79.6037 105.649 78.6578C107.331 78.1256 109.058 77.7181 110.785 77.3531C112.163 77.0611 113.398 77.8245 114.07 79.2509C114.283 79.7071 114.426 80.1937 114.596 80.656C116.929 80.6742 117.586 81.2886 118.52 84.4424C118.897 84.1018 119.207 83.8281 119.511 83.5452C120.986 82.1614 122.361 80.6499 123.951 79.4182C126.159 77.7059 127.425 78.0952 128.717 80.583C128.787 80.7168 128.875 80.8415 129.046 81.1152C129.48 80.4431 129.779 79.9261 130.131 79.4516C130.965 78.3263 132.117 78.2107 133.097 79.2235C133.653 79.7983 134.097 80.4948 134.532 81.173C135.299 82.3652 135.983 83.6091 136.764 84.7922C138.349 87.1857 140.66 88.3779 143.477 88.235C149.933 87.9065 155.928 86.1152 161.144 82.1371C161.828 81.617 162.473 81.0179 163.227 80.6316C163.653 80.4127 164.401 80.3488 164.751 80.586C165.104 80.8263 165.301 81.5349 165.28 82.0246C165.225 83.3141 164.416 84.266 163.54 85.1298C160.754 87.8761 157.455 89.7982 153.823 91.2002C151.101 92.2495 148.285 92.8091 145.384 92.9399C140.332 93.171 136.497 91.0026 133.662 86.9089C133.212 86.2581 132.762 85.6012 132.169 84.7374C131.622 85.4704 131.202 86.0118 130.803 86.5683C130.01 87.6784 129.331 88.8919 128.419 89.8955C127.038 91.4131 125.533 91.0725 124.821 89.1382C124.444 88.1163 124.24 87.0336 123.894 85.7472C123.44 86.1729 123.161 86.4254 122.893 86.693C121.637 87.9399 120.451 89.272 119.11 90.4217C117.434 91.8602 116.454 91.6564 115.101 89.8499C115.013 89.7343 114.882 89.6492 114.648 89.4363C114.259 89.6918 113.851 89.9533 113.45 90.224C112.273 91.0117 111.123 91.845 109.919 92.5871C108.511 93.4539 106.938 93.536 105.354 93.2836C103.748 93.0281 102.373 91.5378 102.13 89.6735C101.99 88.5847 102.106 87.4655 102.106 85.9996C101.519 86.471 101.09 86.7508 100.734 87.1066C99.1281 88.7246 97.5374 90.3548 95.959 91.9971C94.931 93.0646 94.2102 93.314 93.164 92.8821C92.1147 92.4502 91.3787 91.4466 91.8349 90.1449C92.6409 87.8578 91.4821 86.9211 89.7151 86.1516C89.3958 86.0117 89.1069 85.7958 88.6385 85.516C87.7961 86.2155 86.9171 86.9515 86.0291 87.6814C84.2134 89.1778 82.2487 90.4004 79.9525 91.0208C79.9038 91.033 79.8552 91.0634 79.8065 91.0634C77.6654 91.1577 75.6642 91.4223 73.9489 93.0524C73.0426 93.9131 71.9264 93.4873 70.9867 92.5263C70.6704 92.2039 70.3723 91.8633 69.9222 91.3797C69.2653 91.8541 68.6022 92.2799 67.997 92.7787C66.5646 93.9618 64.9527 94.7799 63.1492 95.1966C60.6461 95.7714 59.0799 95.0232 57.8968 92.7544C57.8055 92.581 57.7082 92.4107 57.5531 92.137C55.9929 92.657 54.4662 93.1619 52.9425 93.6698C48.7059 95.084 44.4237 96.2884 39.9682 96.7993C36.5436 97.1917 33.256 96.6625 30.242 95.0688C28.9494 94.3845 27.9519 93.1345 26.8418 92.1157C26.5681 91.8633 26.3765 91.5196 25.972 90.9843C25.6922 93.4052 25.4154 95.5402 25.2177 97.6813C25.1356 98.5572 24.7433 99.0925 23.9434 99.3693C22.7877 99.7707 21.8753 99.3997 21.6259 98.1923C21.3704 96.9696 21.2397 95.6862 21.2975 94.4393C21.6472 86.8968 22.07 79.3573 22.4532 71.8179C22.5262 70.4006 22.4927 68.9803 22.5596 67.5631C22.6235 66.2005 23.0918 65.869 24.4179 66.1488C25.975 66.4773 27.1003 67.7395 27.0456 69.3757C26.9665 71.6536 26.7293 73.9225 26.5711 76.1974C26.5407 76.6262 26.5681 77.055 26.5681 77.4839C26.6745 77.5021 26.784 77.5204 26.8905 77.5386L26.8874 77.5447ZM69.1284 85.37C68.4532 85.218 67.699 84.9899 66.9326 84.8956C66.4977 84.8408 65.8407 84.8348 65.6187 85.0933C64.3778 86.5288 63.2191 88.0403 62.0847 89.561C61.89 89.8225 61.9357 90.2666 61.8596 90.6954C64.6272 90.0293 67.8298 87.5872 69.1314 85.37H69.1284ZM110.834 82.6602C108.65 84.1079 106.36 87.1614 106.366 88.6547C108.413 88.6729 111.981 86.0087 112.832 83.898C112.203 83.5087 111.588 83.1286 110.837 82.6602H110.834Z" fill="black"/>
<path d="M66.8747 39.735C65.9076 39.2575 65.1199 39.0203 64.5177 38.5428C62.9362 37.2898 62.9028 35.1365 64.6759 34.2546C66.4794 33.3574 66.5767 32.0739 66.5402 30.4377C66.4702 27.2565 67.0572 24.1695 68.4136 21.2833C68.9215 20.2006 69.6302 19.1726 70.4148 18.2633C71.4915 17.0163 73.1946 16.8947 74.5389 17.8344C75.6277 18.5978 76.6374 19.4555 77.051 20.7906C77.1848 21.2194 77.3551 21.7121 77.2578 22.1166C77.1544 22.5454 76.829 23.0655 76.458 23.2389C76.1782 23.3696 75.576 23.1233 75.281 22.8617C73.6873 21.4384 72.8327 21.5661 71.9568 23.5521C70.792 26.192 70.497 29.0022 70.43 31.9979C70.9562 31.9979 71.3941 32.0466 71.8169 31.9888C73.7755 31.7181 75.7372 31.4657 77.6775 31.0977C78.1276 31.0125 78.6295 30.5928 78.8819 30.1853C79.9129 28.5247 81.0473 27.004 82.863 26.119C85.217 24.9724 87.209 25.5229 88.4712 27.6883C89.6451 29.7017 89.3136 31.7546 87.3459 32.9954C86.0838 33.7892 84.5874 34.2211 83.1793 34.7685C82.5862 34.9997 81.7985 34.9267 82.0205 35.9577C82.2243 36.9035 82.8691 37.013 83.6324 36.8671C87.0661 36.2162 90.5058 35.5867 93.7175 34.1207C93.9486 34.0143 94.1676 33.8774 94.4079 33.8044C95.7369 33.3999 96.4699 32.6031 96.7314 31.1494C97.0599 29.3063 97.9541 27.6366 99.7576 26.8337C100.676 26.4262 101.829 26.1616 102.796 26.3136C105.214 26.6969 106.239 28.6555 105.405 30.9608C104.742 32.7886 103.267 33.8592 101.668 34.7898C101.196 35.0635 100.713 35.3099 100.162 35.6079C100.673 36.566 101.509 36.8518 102.334 36.8701C104.25 36.9157 106.214 37.0708 108.079 36.7302C112.781 35.8725 117.324 34.4462 121.436 31.9097C122.336 31.3531 123.133 30.6232 124.03 30.0606C124.42 29.8142 125.104 29.5435 125.375 29.7199C125.752 29.9602 126.001 30.5928 126.074 31.0885C126.257 32.3446 125.682 33.3239 124.76 34.1633C121.895 36.7697 118.586 38.6067 114.891 39.6742C112.422 40.3889 109.882 40.8725 107.358 41.3773C105.439 41.7605 103.526 41.5385 101.64 41.0337C100.123 40.6261 98.8208 39.9266 97.9297 38.5763C97.6864 38.2052 97.3732 37.8798 97.2028 37.67C93.7296 38.7131 90.4024 39.7563 87.0448 40.687C85.9864 40.982 84.8459 41.0732 83.7389 41.0854C81.2298 41.1127 79.4172 39.6377 78.7907 37.2046C78.3588 35.5167 78.3557 35.5045 76.6708 35.7539C74.9677 36.0064 73.2737 36.347 71.5645 36.5447C70.4787 36.6694 70.208 37.2138 70.3631 38.1809C70.6186 39.7837 70.8802 41.3834 71.087 42.9923C71.5888 46.9126 72.0815 50.8359 72.5255 54.7622C72.6016 55.4435 72.562 56.2129 72.3157 56.8364C72.1241 57.323 71.5462 57.9404 71.1022 57.9708C70.5639 58.0073 69.7701 57.6302 69.4781 57.1801C69.0645 56.5383 68.9155 55.6807 68.8151 54.893C68.1764 50.0208 67.5834 45.1395 66.9721 40.2612C66.9416 40.0118 66.8839 39.7685 66.8747 39.7198V39.735ZM102.851 29.4006C101.166 29.8173 100.214 30.757 100.202 31.8854C101.786 31.2528 102.3 30.7905 102.851 29.4006ZM85.5728 29.3763C85.4907 29.2729 85.4116 29.1695 85.3295 29.0661C83.7511 29.4827 83.0911 30.0575 82.7322 31.5843C83.8119 30.7449 84.6939 30.0606 85.5728 29.3763Z" fill="black"/>
<path d="M35.5035 38.2264C34.5303 38.7039 33.7669 39.0902 32.9974 39.4612C28.1587 41.7878 23.3564 44.1935 18.4721 46.4106C14.3389 48.2871 10.0415 48.938 5.62246 47.3048C5.49169 47.2561 5.33354 47.2805 4.926 47.2531C5.01724 48.2963 5.10544 49.2725 5.18755 50.2488C5.294 51.5231 5.1024 51.6995 3.86154 51.4684C1.69003 51.0669 1.01485 50.3218 0.865829 48.132C0.677267 45.3614 0.850622 42.5634 0.0629189 39.8383C-0.116519 39.2118 0.129828 38.4332 0.278853 37.7489C1.3494 32.8281 0.920573 27.8616 0.768507 22.9042C0.722887 21.4474 0.482622 19.9937 0.31839 18.5399C0.227151 17.7309 0.561697 17.3416 1.35852 17.5454C3.77942 18.1628 4.53975 18.838 4.70094 21.0216C4.81955 22.664 4.97162 24.3032 5.10848 25.9425C5.21493 25.982 5.31833 26.0216 5.42478 26.0611C5.77149 25.6597 6.12428 25.2643 6.46491 24.8598C8.65467 22.2503 10.9874 19.7838 13.8949 17.959C14.9137 17.3203 16.0512 16.8611 17.1673 16.3897C17.9915 16.043 18.7914 16.2924 19.4362 16.8489C20.7014 17.9377 21.3066 19.3519 21.1971 21.0247C21.1424 21.8702 20.8565 22.6548 19.9654 22.9529C19.0651 23.254 18.2683 22.9377 17.5962 22.3142C17.3802 22.1135 17.2312 21.8398 16.8875 21.3805C16.185 21.8245 15.3882 22.1652 14.8073 22.7278C10.8444 26.569 7.49288 30.8603 5.43694 36.0428C4.63403 38.0713 4.71311 40.2246 4.89255 42.3505C4.98074 43.3936 5.68633 43.9107 7.03364 44.157C9.71913 44.6467 12.3134 44.1753 14.7647 43.1382C18.2592 41.657 21.7111 40.0695 25.1204 38.3998C29.1167 36.4442 33.0461 34.3518 37.0029 32.3171C37.0941 32.2715 37.1884 32.1711 37.2705 32.1803C38.928 32.3749 40.4822 31.3317 42.0393 31.5477C43.6421 31.7727 45.2935 32.3871 46.6834 33.2265C50.1962 35.3493 50.4881 38.637 47.6506 41.6053C45.9991 43.3328 44.004 44.3182 41.6257 44.4642C38.8246 44.6345 37.1002 43.4332 36.2517 40.772C36.0084 40.0086 35.7985 39.2301 35.5065 38.2295L35.5035 38.2264ZM39.6032 39.9387C39.7492 40.0482 39.8952 40.1546 40.0412 40.2641C42.0271 40.1425 43.5478 39.0719 44.8495 37.6334C45.0898 37.3688 45.2844 36.6571 45.1475 36.5324C44.8191 36.2283 44.074 35.8694 43.8672 36.0245C42.8179 36.8092 41.8143 36.499 40.6038 35.9667C40.2449 37.3901 39.9226 38.6613 39.6032 39.9356V39.9387Z" fill="black"/>
<path d="M54.6457 32.5299C55.403 32.1407 55.8653 31.87 56.3549 31.654C57.9242 30.9606 59.4753 30.2125 61.0872 29.6346C61.9358 29.3305 62.9242 29.2696 63.5142 30.2672C63.9552 31.0123 63.7393 32.0342 62.8269 32.8523C62.1973 33.418 61.4218 33.8316 60.6827 34.2574C59.5878 34.89 58.4595 35.4648 57.3555 36.0822C55.8379 36.9307 55.3178 38.1594 55.701 39.9021C56.4401 43.2658 57.1517 46.6417 57.6961 50.0389C58.1432 52.8338 58.3744 55.6653 58.6146 58.4877C58.6754 59.2176 58.496 60.0023 58.271 60.7109C58.0368 61.4469 57.392 61.9669 56.6317 61.7176C56.0934 61.5442 55.6402 60.9907 55.257 60.5162C55.0654 60.276 55.0836 59.8411 55.0624 59.4913C54.6761 53.6155 53.5934 47.8521 52.386 42.098C51.2181 36.5354 50.5064 30.8998 50.8562 25.1943C50.99 23.0015 51.5587 20.8908 52.7905 19.0265C53.8306 17.4571 54.9529 17.1104 56.7108 17.7582C59.0678 18.6311 60.7375 20.83 60.6858 23.1596C60.6736 23.6949 60.2782 24.221 60.0593 24.7502C59.4996 24.4978 58.861 24.3397 58.4017 23.9656C58.0398 23.6706 57.909 23.0988 57.6596 22.6608C57.2126 21.8762 56.7594 21.788 56.1451 22.4449C55.8075 22.8038 55.5338 23.263 55.3574 23.7253C54.299 26.502 54.6062 29.37 54.6457 32.5299Z" fill="black"/>
<path d="M40.7012 55.9816C40.4001 56.6325 40.1842 57.1252 39.95 57.6088C38.9129 59.7377 38.0735 59.835 36.6958 58.0832C35.6587 58.7523 34.7098 59.6404 33.5906 60.0205C32.1307 60.5163 31.416 59.0777 30.461 58.1714C29.7403 59.0138 29.1107 59.8593 28.3686 60.5923C26.6503 62.2954 25.1053 61.9822 24.126 59.7681C23.1588 57.5814 23.6059 55.419 24.2415 53.2505C24.3662 52.8247 24.3997 52.3077 24.278 51.888C23.9009 50.5742 24.5183 48.4452 25.7105 47.9373C26.2366 47.7123 27.1034 47.8948 27.6448 48.1958C28.3412 48.5821 28.1618 49.3242 27.7634 49.9324C27.514 50.3096 27.1277 50.6228 26.9696 51.0304C26.5681 52.0675 25.9051 53.0103 26.3917 54.2998C26.6746 55.048 26.4191 55.9999 26.413 56.8606C26.407 57.3867 26.413 57.9159 26.6259 58.4907C27.59 57.4354 28.9191 56.6599 28.4112 54.8716C28.2926 54.4549 28.6058 53.7524 28.9465 53.4056C29.7707 52.5723 30.1782 51.6113 30.4367 50.492C30.8503 48.7098 31.6107 48.5274 32.9215 49.7408C33.2043 50.0024 33.6484 50.121 34.0376 50.2396C34.6307 50.4191 35.242 50.5377 35.9902 50.7171C36.1179 50.3217 36.2487 49.75 36.4859 49.2238C36.9056 48.2871 37.6386 47.9647 38.4263 48.2901C39.2353 48.6277 39.5059 49.3211 39.2079 50.2944C39.071 50.7506 38.9372 51.2068 39.0193 51.7572C39.1714 51.6386 39.3235 51.5261 39.4725 51.4014C40.762 50.3369 41.4494 50.5255 42.0242 52.0948C42.3374 52.9464 42.5655 53.8497 43.0065 54.6313C43.7486 55.9573 44.6732 56.1246 45.8958 55.2335C47.2461 54.2481 48.1068 52.9069 48.6269 51.3162C48.8094 50.7536 48.8398 49.753 49.7552 50.0784C50.178 50.2275 50.6098 51.1094 50.5825 51.6356C50.476 53.8101 49.81 55.8174 48.1494 57.3533C46.1634 59.1902 43.6817 59.1051 41.8113 57.1647C41.4737 56.8119 41.1452 56.45 40.7042 55.9756L40.7012 55.9816ZM32.9519 57.3685C34.7949 56.2037 36.0966 53.6489 35.7347 51.8819C35.1903 52.3168 34.6763 52.7882 34.1015 53.1715C32.0851 54.5188 31.9239 55.0692 32.9519 57.3685Z" fill="black"/>
<path d="M14.6825 57.1587C16.3339 56.7299 17.2828 57.5541 18.0401 58.7493C18.0948 58.8345 18.1526 58.9196 18.2226 58.9926C18.6544 59.4367 19.0164 60.3886 19.7219 59.8685C20.2815 59.4549 20.7317 58.5547 20.756 57.8552C20.7803 57.1922 20.1386 56.5231 19.8862 55.8236C19.7372 55.4069 19.5973 54.6192 19.7584 54.528C20.169 54.2907 20.8685 54.1265 21.2426 54.3272C22.7754 55.1454 23.2043 56.6873 23.4232 58.2688C23.4993 58.8041 23.3837 59.385 23.262 59.9263C22.745 62.2773 20.3606 63.29 18.3229 62.0066C17.6538 61.5838 17.0821 61.009 16.3765 60.4281C15.7926 61.374 15.2725 62.2803 14.6885 63.1471C14.2323 63.8283 13.688 64.54 12.7421 64.321C11.6959 64.0808 11.3826 63.1714 11.2671 62.2347C10.9842 59.9446 11.1576 57.6879 11.8449 55.4738C12.0213 54.9081 12.2038 54.4093 12.9367 54.4489C13.7184 54.4884 14.3358 54.7713 14.5274 55.5863C14.6308 56.0213 14.6186 56.4835 14.6764 57.1648L14.6825 57.1587Z" fill="black"/>
<path d="M91.5034 24.358C91.2905 24.3793 91.2175 24.4066 91.1962 24.3854C87.4645 20.8757 86.6312 14.9329 89.265 10.6081C89.8459 9.65621 90.4663 8.72861 91.0441 7.77667C92.1694 5.9245 92.9024 3.95981 92.8355 1.74572C92.8203 1.18308 92.9845 0.614348 93.0697 0.0486612C93.2187 0.0334546 93.3677 0.0152066 93.5167 0C93.6414 0.41362 93.8635 0.8242 93.8787 1.2439C94.0094 4.46467 93.2887 7.47862 91.622 10.2554C91.2053 10.9488 90.7643 11.6331 90.3811 12.3447C89.3593 14.2425 88.9456 16.2559 89.5478 18.3635C90.0192 20.015 90.6153 21.6299 91.1536 23.2601C91.2722 23.6159 91.3787 23.9717 91.5003 24.358H91.5034Z" fill="black"/>
<path d="M96.8531 7.17456C97.2242 8.63744 96.7285 9.87526 96.0472 11.0614C95.6457 11.7639 95.2017 12.4482 94.709 13.093C92.9846 15.3527 92.8933 17.8435 93.602 20.4621C93.6932 20.8027 93.7905 21.1464 93.8453 21.4931C93.8666 21.6269 93.7845 21.776 93.6719 22.2443C92.8173 21.0217 92.5071 19.8386 92.2121 18.6799C91.6099 16.3259 92.13 14.1879 93.5411 12.208C94.6786 10.6143 95.7005 8.93853 96.8531 7.1776V7.17456Z" fill="black"/>
</svg>
