<svg width="123" height="83" viewBox="0 0 123 83" fill="none" xmlns="http://www.w3.org/2000/svg">
<g clip-path="url(#clip0_102_47)">
<path d="M1.90111e-05 0.0115857H0.92339C15.6191 0.0115857 30.3147 0.0115857 45.0143 0C45.6247 0 46.0668 0.158338 46.5011 0.594733C48.8408 2.94663 51.2158 5.26377 53.579 7.59636C53.7746 7.78946 53.982 7.97483 53.9663 7.85897C55.4375 6.55751 56.9399 5.29081 58.368 3.943C59.5535 2.82305 60.6334 1.5911 61.8072 0.455704C62.0615 0.208543 62.5114 0.0270333 62.8675 0.0270333C75.6303 0.0077238 88.401 0.0154476 101.172 0C101.813 0 102.267 0.193095 102.717 0.644938C104.803 2.74581 106.935 4.80034 109.016 6.90508C109.282 7.17541 109.478 7.63884 109.486 8.01731C109.529 10.1993 109.506 12.3774 109.506 14.5594C109.506 14.8529 109.506 15.1502 109.506 15.6716C110.476 14.8374 111.243 14.1075 112.084 13.4703C113.054 12.7327 114.025 11.9487 115.108 11.4042C117.749 10.0718 120.531 11.0026 121.932 13.5784C122.808 15.1889 123.074 16.9422 122.977 18.738C122.91 19.9313 122.444 21.0358 121.584 21.8854C120.265 23.1984 118.806 24.3763 117.526 25.7241C115.899 27.4427 114.388 29.2732 112.835 31.0613C111.849 32.1967 110.844 33.3205 109.92 34.5022C109.635 34.8653 109.439 35.4059 109.435 35.8655C109.408 49.1273 109.404 62.3929 109.419 75.6547C109.419 76.2417 109.247 76.6395 108.813 77.0334C106.794 78.8716 104.814 80.7562 102.792 82.5906C102.541 82.8185 102.126 82.9846 101.786 82.9846C88.8353 83.0039 75.8886 82.9961 62.9379 82.9961C62.7344 82.9961 62.531 82.9807 62.2062 82.9652V54.2366C61.8502 54.5223 61.6546 54.6652 61.4746 54.8274C59.1153 56.9399 56.7482 59.0446 54.4045 61.1764C54.0172 61.5278 53.7629 61.5896 53.3051 61.2575C51.2119 59.7436 49.0873 58.2761 46.9706 56.7931C46.7672 56.6502 46.552 56.5189 46.1803 56.2795C46.1803 56.6889 46.1803 56.9476 46.1803 57.2102C46.1803 63.2966 46.1881 69.3829 46.1607 75.4693C46.1607 75.8439 45.9807 76.3228 45.7108 76.5815C43.5902 78.609 41.4343 80.6056 39.2667 82.5829C39.0163 82.8108 38.6016 82.9846 38.2651 82.9846C25.7253 83.0039 13.1894 83 0.649508 83C0.449967 83 0.250425 82.973 -0.0117188 82.9575V0.0115857H1.90111e-05ZM77.571 37.5377C77.5005 37.5609 77.4262 37.584 77.3558 37.6072C77.7627 38.8739 78.0092 40.2256 78.6117 41.3919C79.8481 43.7824 81.2332 46.0995 82.6339 48.4012C84.2263 51.0157 85.49 53.7113 85.7874 56.8086C85.893 57.9324 86.1669 59.0794 86.5895 60.126C87.0942 61.3811 87.7124 62.6362 88.5145 63.7214C89.5239 65.0808 91.0616 64.9417 92.5366 64.5787C93.683 64.2968 94.043 63.3352 94.2542 62.3504C94.4694 61.3386 94.5281 60.292 94.7355 59.2763C94.9742 58.1178 95.205 56.9399 95.6236 55.8354C96.1753 54.3949 96.8718 53.0046 97.5682 51.622C101.07 44.6629 105.108 38.0243 109.881 31.8375C111.571 29.644 113.089 27.3114 115.206 25.4499C116.47 24.3416 117.636 23.1173 118.794 21.9008C120.347 20.2673 121.001 18.2784 120.997 16.0617C120.993 13.1884 118.274 11.5239 115.836 13.0648C114.302 14.0342 112.909 15.297 111.661 16.6216C107.639 20.8929 104.486 25.8052 101.297 30.6867C99.591 33.2973 98.0377 35.9466 97.2317 38.9936C96.4727 41.8746 94.6533 44.2613 93.2252 46.8256C93.1039 47.0457 92.9435 47.2697 92.7401 47.4126C92.2236 47.7679 91.7111 48.185 91.1281 48.3858C89.9113 48.8029 89.6843 48.6716 88.9723 47.6134C87.9393 46.0802 87.5402 44.3153 87.1177 42.5659C86.4252 39.7081 85.8383 36.8232 85.0557 33.9886C84.4219 31.7062 81.0453 30.9609 79.5038 32.7721C78.3652 34.1083 77.5318 35.684 77.5671 37.5454L77.571 37.5377ZM74.6248 51.4444C74.6326 51.317 74.6365 51.1895 74.6483 51.0659C75.0982 46.5205 75.0474 42.0175 73.6506 37.5918C73.1067 35.8655 73.2006 34.089 74.0066 32.3936C75.1804 29.9259 76.8589 27.9061 79.183 26.4C82.2817 24.3879 85.7405 23.295 89.3009 22.457C90.3025 22.2214 91.0929 21.6884 91.6876 20.8968C92.6149 19.6648 92.1962 18.1934 90.7016 17.8381C89.5005 17.5523 88.2132 17.4751 86.9768 17.533C84.7114 17.645 82.8843 18.9117 81.014 20.024C79.8051 20.7423 78.5882 21.4529 77.3675 22.1519C75.3721 23.2989 73.1497 23.3413 70.9391 23.3915C69.1433 23.434 67.7034 24.1176 66.6509 25.5503C66.154 26.2262 65.5828 26.8943 65.2854 27.6551C64.722 29.1033 63.5913 29.8177 62.2571 30.37C61.7367 30.5863 61.1968 30.7716 60.7116 31.0497C59.7648 31.5981 58.6653 32.0422 57.9533 32.8184C55.8483 35.124 53.266 36.7421 50.6054 38.2869C48.923 39.2601 48.3674 40.7933 48.4613 42.6084C48.52 43.6897 49.2438 44.4505 50.3433 44.4428C51.161 44.4351 52.0922 44.3192 52.7652 43.9176C53.892 43.2456 54.9093 42.3651 55.8757 41.4691C57.6911 39.7892 59.3774 37.9741 61.2242 36.3251C62.7227 34.9888 64.4951 34.0388 66.5101 33.6526C66.7331 33.6101 67.1831 33.7607 67.2183 33.8998C67.8012 36.1011 68.6111 38.2521 68.6111 40.577C68.6111 42.6045 68.6151 44.6359 68.7637 46.6556C69.0963 51.2088 68.8342 55.7157 68.0673 60.2109C67.8873 61.2768 67.7191 62.4045 67.8834 63.4511C68.3099 66.0965 68.9163 68.711 69.4837 71.3332C69.5541 71.6576 69.7458 72.0283 70.0001 72.2369C71.2678 73.2796 73.1067 73.0054 73.9401 71.5765C75.2273 69.3752 75.822 66.865 75.3212 64.4629C74.4174 60.1298 74.4566 55.8045 74.617 51.4483L74.6248 51.4444ZM102.408 80.0225C102.471 80.0495 102.533 80.0727 102.596 80.0997C103.899 78.8098 105.19 77.5045 106.512 76.2339C106.931 75.8323 107.107 75.4191 107.107 74.8359C107.095 63.2232 107.099 51.6105 107.107 39.9977C107.107 39.739 107.107 39.4764 107.107 39.0129C106.865 39.2794 106.771 39.3566 106.704 39.4532C105.343 41.5116 103.973 43.5661 102.635 45.64C102.471 45.8948 102.428 46.2617 102.428 46.5745C102.416 56.2602 102.416 65.9458 102.412 75.6315C102.412 77.0952 102.412 78.5588 102.412 80.0225H102.408ZM38.9342 79.6208C39.2159 79.3775 39.4076 79.2269 39.5837 79.057C40.7574 77.9216 41.9469 76.8017 43.0893 75.6354C43.3397 75.3805 43.5432 74.9518 43.5432 74.6004C43.5745 68.9967 43.5706 63.397 43.5667 57.7934C43.5667 56.6811 43.864 55.3913 43.3945 54.5107C42.9211 53.6264 41.6652 53.1514 40.7457 52.5026C40.1745 52.0971 39.5915 51.707 38.9342 51.2513V79.6131V79.6208ZM102.459 24.8629C102.608 24.72 102.69 24.666 102.741 24.5926C104.149 22.5999 105.566 20.611 106.947 18.5951C107.131 18.3247 107.205 17.9385 107.209 17.6026C107.232 15.4746 107.064 13.3313 107.264 11.2227C107.471 9.00596 106.849 7.33375 105.061 5.96664C104.149 5.26763 103.429 4.32533 102.623 3.49116C102.568 3.53364 102.51 3.57998 102.455 3.62246V24.8552L102.459 24.8629Z" fill="black"/>
</g>
<defs>
<clipPath id="clip0_102_47">
<rect width="123" height="83" fill="white"/>
</clipPath>
</defs>
</svg>
