<svg width="183" height="59" viewBox="0 0 183 59" fill="none" xmlns="http://www.w3.org/2000/svg">
<g clip-path="url(#clip0_102_39)">
<path d="M93.6233 59.0001C93.4458 58.967 93.2708 58.9291 93.0934 58.9031C92.5634 58.8275 92.0287 58.7825 91.5036 58.6761C90.6476 58.5035 90.0241 57.9998 89.6525 57.2265C89.4391 56.782 89.2592 56.3185 89.1058 55.8503C87.7846 51.7711 86.4801 47.6872 85.1517 43.6104C84.4468 41.4467 83.6891 39.2972 82.9793 37.1358C82.2935 35.0406 81.6365 32.936 80.9651 30.8385C80.9004 30.6352 80.8141 30.4412 80.7062 30.1646C80.5743 30.3254 80.4784 30.4129 80.416 30.5193C79.9652 31.3044 79.5049 32.0847 79.078 32.8816C77.6873 35.4805 76.4404 38.1432 75.3254 40.8697C74.8003 42.1514 74.2152 43.4118 73.6302 44.6698C72.4648 47.1741 71.3906 49.7185 70.3739 52.2843C69.9999 53.2254 69.6234 54.1642 69.1103 55.0463C68.4892 56.1151 67.6812 56.9972 66.523 57.5174C65.7029 57.8863 64.8397 58.0826 63.9381 58.1015C63.3411 58.1133 62.7416 58.1228 62.1446 58.0944C61.7082 58.0755 61.2694 58.0234 60.8401 57.9336C60.0201 57.7633 59.5981 57.2194 59.5717 56.3941C59.5477 55.6445 59.7299 54.9327 60.0129 54.2541C60.4781 53.1426 60.9744 52.043 61.4708 50.9434C63.4106 46.6302 65.4775 42.376 67.6572 38.1786C69.1318 35.341 70.6233 32.5104 72.1435 29.6964C74.304 25.7023 76.5843 21.7769 79.0253 17.9436C80.0707 16.3025 81.1594 14.6898 82.236 13.0676C83.6723 10.9015 85.0942 8.72593 86.5641 6.58349C87.4585 5.27816 88.4176 4.01539 89.3815 2.75735C90.4845 1.31487 92.0095 0.527415 93.7767 0.170341C94.839 -0.0448496 95.9108 -0.0779558 96.9611 0.238918C97.2944 0.338237 97.6324 0.48012 97.9202 0.671663C98.6036 1.12569 98.8386 1.72397 98.558 2.63202C98.4789 2.89214 98.3254 3.13571 98.172 3.36509C96.6973 5.54774 95.2154 7.72802 93.736 9.9083C91.8825 12.6396 90.0313 15.3708 88.1778 18.1044C88.1011 18.218 88.0363 18.3386 87.9644 18.4544C87.986 18.4757 88.0076 18.4994 88.0315 18.5206C88.1227 18.4781 88.2186 18.445 88.3073 18.3929C90.4773 17.1349 92.5994 15.8059 94.616 14.3209C97.3735 12.2896 100.105 10.2228 102.845 8.17022C105.188 6.41559 107.528 4.65623 109.876 2.9087C111.159 1.95335 112.54 1.16826 114.058 0.629098C115.149 0.241283 116.266 0.151423 117.407 0.321683C117.503 0.335872 117.602 0.361884 117.686 0.406814C118.549 0.872665 119.347 1.41892 119.954 2.20164C120.179 2.49251 120.338 2.81411 120.352 3.19247C120.364 3.53062 120.28 3.83094 120.069 4.10289C119.469 4.87379 118.743 5.51936 117.944 6.07744C115.324 7.90537 112.698 9.72621 110.068 11.54C108.065 12.9186 106.08 14.3209 104.035 15.6357C102.061 16.9032 100.03 18.0808 98.0137 19.2797C96.0691 20.4361 94.1028 21.557 92.2397 22.8386C91.1175 23.6095 90.0313 24.4254 88.9379 25.2341C88.1586 25.8087 87.9308 26.5867 88.1394 27.509C88.3696 28.5353 88.7341 29.519 89.1393 30.4862C89.8179 32.1107 90.5373 33.7164 91.2302 35.3362C92.0263 37.1973 92.7984 39.0725 93.6089 40.9288C94.2227 42.3311 94.8797 43.7145 95.5224 45.1073C95.5823 45.235 95.659 45.3556 95.7597 45.5353C95.8844 45.4076 95.9803 45.3248 96.0547 45.2279C96.8172 44.1969 97.5941 43.1753 98.3278 42.1254C100.311 39.2924 102.27 36.4429 104.248 33.6053C106.895 29.8051 109.605 26.0476 112.382 22.3397C114.391 19.6581 116.393 16.9717 118.446 14.3209C119.971 12.3511 121.568 10.4333 123.136 8.49419C124.642 6.63078 126.15 4.76737 127.658 2.90633C128.147 2.30333 128.66 1.72397 129.289 1.25575C130.068 0.676393 130.957 0.423367 131.919 0.39499C132.775 0.368978 133.629 0.380802 134.461 0.612545C135.115 0.794629 135.717 1.06894 136.206 1.55607C136.703 2.0503 136.976 2.64621 136.978 3.33435C136.978 3.90898 136.926 4.48597 136.873 5.0606C136.799 5.86224 136.698 6.66152 136.612 7.4608C136.528 8.22461 136.449 8.99078 136.365 9.75459C136.276 10.5799 136.187 11.4028 136.096 12.2281C136.017 12.9446 135.938 13.6611 135.851 14.3776C135.768 15.0705 135.681 15.761 135.588 16.4515C135.456 17.4281 135.322 18.4048 135.182 19.379C135.027 20.4621 134.864 21.5428 134.705 22.6258C134.545 23.7325 134.379 24.8392 134.223 25.9459C134.067 27.0526 133.919 28.1616 133.77 29.2683C133.763 29.3251 133.775 29.3842 133.782 29.4859C133.912 29.4812 134.029 29.4906 134.139 29.467C135.7 29.1335 137.259 28.8001 138.818 28.4596C139.268 28.3603 139.717 28.2373 140.168 28.138C140.403 28.086 140.542 27.9701 140.63 27.7384C141.731 24.8416 143.055 22.037 144.323 19.2088C145.5 16.5792 146.644 13.9331 147.814 11.2988C148.824 9.02862 149.836 6.76084 150.881 4.50725C151.138 3.95391 151.488 3.43367 151.855 2.9418C152.555 2.00537 153.504 1.37635 154.605 0.979078C155.864 0.522685 157.159 0.253106 158.509 0.316954C159.705 0.373708 160.597 0.912866 161.168 1.95571C161.491 2.54689 161.667 3.18774 161.738 3.8475C161.842 4.79102 161.901 5.73928 161.973 6.68517C162.045 7.65707 162.11 8.62898 162.175 9.59852C162.204 10.0313 162.232 10.4616 162.254 10.8944C162.285 11.5541 162.302 12.2163 162.34 12.876C162.477 15.1604 162.487 17.4447 162.506 19.7314C162.515 20.9327 162.587 22.1363 162.633 23.3376C162.633 23.3731 162.633 23.4109 162.638 23.4464C162.666 23.6899 162.714 23.7254 162.971 23.6805C163.726 23.5457 164.482 23.4085 165.234 23.2667C166.982 22.9403 168.731 22.6187 170.476 22.2806C172.327 21.9211 174.176 21.5333 176.027 21.1739C176.96 20.9941 177.895 20.8144 178.837 20.7127C179.511 20.6394 180.199 20.6513 180.876 20.805C182.264 21.1195 182.911 22.0441 182.986 23.3541C183.022 23.9784 183 24.6051 182.99 25.2294C182.983 25.6172 182.885 25.9908 182.724 26.3455C182.504 26.8327 182.144 27.1968 181.633 27.3505C180.899 27.5681 180.156 27.7667 179.403 27.9086C178.015 28.1687 176.619 28.3839 175.226 28.6157C174.013 28.8167 172.8 29.0177 171.586 29.221C169.905 29.5024 168.225 29.7886 166.544 30.07C165.498 30.245 164.453 30.4152 163.41 30.5902C163.117 30.6399 163.079 30.6777 163.079 30.9638C163.079 31.4202 163.1 31.879 163.115 32.3354C163.12 32.4915 163.127 32.6475 163.134 32.8036C163.187 34.1255 163.215 35.4497 163.302 36.7693C163.427 38.6752 163.654 40.5741 163.923 42.4659C164.107 43.7618 164.242 45.0671 164.388 46.3677C164.546 47.7889 164.702 49.2101 164.836 50.636C164.923 51.5441 165.011 52.4569 165.026 53.3673C165.038 54.124 164.937 54.8784 164.659 55.5996C164.167 56.8766 163.192 57.5671 161.861 57.742C160.571 57.9099 159.269 58.0045 157.969 58.0991C157.314 58.1464 156.82 57.8366 156.494 57.2738C156.243 56.8387 156.125 56.361 156.024 55.8763C155.758 54.5922 155.538 53.2987 155.423 51.9934C155.343 51.083 155.252 50.1749 155.207 49.2621C155.135 47.8575 155.094 46.4505 155.048 45.0434C155.015 43.9722 155.008 42.901 154.974 41.8321C154.936 40.6309 154.909 39.4272 154.828 38.2283C154.701 36.3412 154.698 34.4518 154.703 32.5624C154.703 32.4087 154.703 32.255 154.703 32.0847C154.588 32.0729 154.516 32.0516 154.451 32.0634C152.279 32.4323 150.107 32.806 147.937 33.1796C147.517 33.2529 147.1 33.3475 146.678 33.4042C146.378 33.4444 146.213 33.5698 146.124 33.8701C145.632 35.5207 145.102 37.1594 144.62 38.8124C144.165 40.3731 143.757 41.9457 143.323 43.5111C142.707 45.7387 142.1 47.9686 141.462 50.1891C140.885 52.2015 140.271 54.2068 139.669 56.2121C139.482 56.834 139.079 57.288 138.508 57.5931C137.962 57.8839 137.372 58.04 136.753 58.0376C136.108 58.0376 135.461 58.0116 134.818 57.9643C134.377 57.9336 133.957 57.7917 133.569 57.5812C132.823 57.1816 132.43 56.5502 132.348 55.7249C132.252 54.7507 132.425 53.8071 132.703 52.8778C133.53 50.1205 134.355 47.3656 135.182 44.6083C136.089 41.5862 136.998 38.5665 137.904 35.5443C137.945 35.4095 137.969 35.27 138.007 35.0927C137.844 35.0927 137.724 35.0737 137.611 35.095C136.082 35.393 134.554 35.698 133.024 36.0031C132.739 36.0598 132.701 36.1 132.66 36.3696C132.413 37.9374 132.166 39.5053 131.919 41.0731C131.713 42.3784 131.502 43.6837 131.296 44.9914C131.037 46.6302 130.775 48.2689 130.526 49.9077C130.368 50.9411 130.257 51.9816 130.075 53.0102C129.89 54.0507 129.514 55.0297 128.886 55.8976C128.154 56.9073 127.174 57.5079 125.917 57.6947C125.253 57.7941 124.594 57.9289 123.922 57.8934C123.364 57.8626 122.805 57.8106 122.251 57.7302C121.678 57.6475 121.287 57.2904 121.007 56.808C120.702 56.2877 120.563 55.7131 120.489 55.1267C120.352 54.0483 120.378 52.9677 120.462 51.887C120.661 49.2976 121.234 46.7792 121.898 44.2749C122.426 42.2862 122.922 40.288 123.433 38.2945C123.462 38.181 123.471 38.0628 123.498 37.8925C123.32 37.902 123.179 37.8949 123.042 37.9209C121.129 38.2921 119.218 38.6658 117.307 39.0465C116.817 39.1434 116.336 39.2806 115.844 39.3681C113.842 39.7275 111.84 40.0751 109.837 40.4251C108.962 40.5765 108.085 40.7207 107.207 40.8673C106.965 40.9075 106.799 41.0163 106.677 41.2457C105.349 43.7121 104.008 46.1714 102.673 48.6331C101.378 51.0191 100.088 53.4099 98.781 55.7935C98.3686 56.5455 97.9154 57.2738 97.292 57.8839C96.7237 58.4396 96.0451 58.7589 95.2538 58.844C94.9157 58.8818 94.5752 58.8984 94.2347 58.9362C94.1028 58.9504 93.9758 58.9906 93.8463 59.019H93.6257L93.6233 59.0001ZM111.267 34.2934C111.286 34.3218 111.302 34.3501 111.322 34.3785C111.449 34.3572 111.578 34.3454 111.705 34.317C112.609 34.116 113.511 33.9103 114.415 33.7117C116.235 33.312 118.052 32.9124 119.872 32.5151C121.241 32.2172 122.608 31.9168 123.977 31.6283C124.234 31.5739 124.38 31.4723 124.431 31.198C124.697 29.7436 124.982 28.2917 125.253 26.8398C125.639 24.7848 126.02 22.7275 126.404 20.6702C126.934 17.8325 127.466 14.9972 127.996 12.1619C128.051 11.8616 128.099 11.5589 128.154 11.2396C127.912 11.2325 127.84 11.3933 127.747 11.5069C127.167 12.221 126.579 12.9281 126.025 13.6635C124.104 16.215 122.179 18.7618 120.294 21.337C118.414 23.9028 116.566 26.4898 114.736 29.0886C113.609 30.6895 112.542 32.333 111.451 33.9576C111.379 34.064 111.326 34.1822 111.264 34.2958L111.267 34.2934ZM147.838 26.4519C148.011 26.4401 148.119 26.4449 148.222 26.4259C150.231 26.0476 152.241 25.6692 154.25 25.2885C154.592 25.2239 154.765 25.0142 154.768 24.6595C154.768 24.624 154.768 24.5862 154.768 24.5507C154.782 22.5525 154.73 20.5567 154.629 18.5632C154.559 17.1586 154.516 15.7515 154.48 14.3445C154.439 12.7578 154.423 11.1687 154.396 9.58196C154.396 9.43772 154.403 9.29347 154.396 9.14922C154.391 9.07591 154.363 9.00261 154.332 8.87255C154.252 8.97423 154.195 9.02152 154.173 9.08064C152.068 14.8482 149.965 20.6158 147.836 26.4519H147.838Z" fill="black"/>
<path d="M22.813 23.7252C22.7602 23.8245 22.6979 23.9215 22.6547 24.0255C22.1344 25.3238 21.6332 26.6291 21.0961 27.9203C20.559 29.2114 19.9907 30.4884 19.4296 31.77C18.3962 34.1348 17.3339 36.4877 16.3316 38.8642C14.6172 42.9292 12.9339 47.0084 11.2482 51.0851C10.8981 51.9317 10.5936 52.7972 10.2699 53.6532C9.71121 55.1241 8.85758 56.394 7.64908 57.425C6.6324 58.2928 5.47425 58.7705 4.10988 58.754C3.30421 58.7445 2.49854 58.735 1.71445 58.5317C1.47946 58.4702 1.24447 58.3922 1.02867 58.2834C0.359676 57.95 0.0215815 57.4037 1.07801e-06 56.6612C-0.0239772 55.7839 0.249375 54.9728 0.587469 54.1853C1.26126 52.6128 1.95183 51.0426 2.66879 49.489C3.94923 46.7199 5.27043 43.9673 6.54608 41.1959C7.72101 38.6419 8.8456 36.0691 10.0109 33.5128C10.596 32.2288 11.2362 30.9684 11.8285 29.6891C12.4735 28.2986 13.0826 26.894 13.7228 25.5035C14.3822 24.0681 15.0272 22.6256 15.737 21.2115C17.7176 17.2624 19.7246 13.3299 21.7219 9.39024C22.3981 8.05653 23.0575 6.711 23.7529 5.38675C24.2828 4.37938 24.9135 3.43349 25.7575 2.64603C26.2514 2.18491 26.7934 1.79236 27.4767 1.66703C27.7956 1.60792 28.1361 1.58427 28.4574 1.61974C29.0857 1.68595 29.7139 1.78527 30.3349 1.90114C31.0783 2.04303 31.5339 2.50651 31.7305 3.22303C31.8983 3.84022 32.0206 4.46451 32.0446 5.10535C32.0638 5.64687 32.1213 6.1884 32.0998 6.72755C32.0662 7.57886 31.9966 8.43016 31.9103 9.2791C31.7952 10.4142 31.6514 11.5469 31.5195 12.6819C31.4068 13.6491 31.2845 14.6139 31.1838 15.5835C31.0903 16.4679 31.0183 17.3546 30.9368 18.2414C30.8721 18.9485 30.8073 19.6532 30.745 20.3602C30.7138 20.7197 30.6802 21.0791 30.6611 21.4385C30.6035 22.4956 30.5412 23.5502 30.5004 24.6073C30.462 25.6288 30.4476 26.6528 30.4237 27.6743C30.4237 27.6861 30.4261 27.7003 30.4237 27.7098C30.2606 28.2631 30.3973 28.8307 30.3637 29.3888C30.3326 29.8972 30.4165 30.415 30.4524 30.9282C30.4524 30.9471 30.4812 30.9637 30.5076 30.9968C30.6706 31.0039 30.7114 30.8549 30.7714 30.7508C31.0591 30.2495 31.3612 29.7506 31.6178 29.2327C33.0877 26.2697 34.5359 23.2996 36.0082 20.3389C36.7228 18.9035 37.4733 17.4823 38.207 16.0564C40.0558 12.462 41.9021 8.86527 43.7556 5.27088C44.2304 4.34864 44.7195 3.43112 45.2159 2.5207C45.5372 1.93425 45.9424 1.40691 46.4604 0.971803C46.9279 0.581623 47.4579 0.364068 48.0789 0.288396C48.9301 0.186713 49.779 0.144148 50.6326 0.163066C51.1241 0.174889 51.6013 0.264749 52.0617 0.437374C52.841 0.730601 53.1479 1.30287 52.9345 2.09978C52.8626 2.36463 52.7571 2.62475 52.6324 2.87068C51.4095 5.26852 50.1818 7.66162 48.9541 10.0547C47.4986 12.89 46.0479 15.7254 44.5853 18.5559C43.7556 20.1639 42.8876 21.7554 42.0723 23.3705C41.1492 25.2032 40.25 27.0477 39.3748 28.9016C38.4636 30.8312 37.5668 32.7703 36.706 34.7236C35.4711 37.5258 34.2458 40.3351 33.0685 43.1609C31.7473 46.332 30.4956 49.5315 29.1936 52.7097C28.75 53.7904 28.2584 54.8545 27.7669 55.9139C27.5894 56.2946 27.3688 56.6588 27.129 57.0064C26.6183 57.7466 25.8894 58.1249 24.9926 58.2526C24.0167 58.3922 23.0743 58.2432 22.1344 58.0233C21.8874 57.9665 21.65 57.8554 21.4246 57.7395C20.9043 57.4723 20.595 57.0348 20.4679 56.4791C20.3624 56.018 20.3552 55.5521 20.4103 55.0815C20.4895 54.4123 20.535 53.7407 20.5974 53.0715C20.6597 52.3905 20.7244 51.7071 20.7844 51.026C20.8156 50.6666 20.8491 50.3072 20.8755 49.9477C20.957 48.8576 21.029 47.7651 21.1129 46.6749C21.1992 45.5611 21.2975 44.4473 21.3815 43.3336C21.4438 42.4941 21.4894 41.6546 21.5493 40.8151C21.6092 40.0111 21.6788 39.2095 21.7435 38.4078C21.7723 38.0366 21.7987 37.6653 21.8274 37.294C21.9234 36.0478 22.0217 34.8016 22.1176 33.5554C22.1751 32.8129 22.2159 32.068 22.2854 31.3255C22.3598 30.5475 22.4653 29.7742 22.5468 28.9962C22.6355 28.1236 22.7218 27.251 22.7914 26.3761C22.8513 25.6336 22.8897 24.8887 22.9352 24.1462C22.9424 24.0185 22.9352 23.8908 22.9352 23.7631C22.8921 23.7536 22.8489 23.7441 22.8058 23.7347L22.813 23.7252Z" fill="black"/>
<path d="M48.0813 58.3473C47.3811 58.345 46.6881 58.2882 46.0143 58.099C45.8153 58.0423 45.6163 57.9737 45.4317 57.8838C44.6955 57.522 44.367 56.893 44.5013 56.0985C44.6044 55.4907 44.7651 54.8948 45.0504 54.3462C45.4796 53.5233 45.9328 52.7098 46.3956 51.9034C47.4099 50.1322 48.4146 48.3563 49.46 46.6041C51.1241 43.8137 52.8218 41.0422 54.5027 38.2613C55.5889 36.4617 56.6823 34.6669 57.7493 32.8555C58.2337 32.035 58.6965 31.1931 58.9171 30.2591C58.9818 29.9824 58.9986 29.6868 58.9818 29.4007C58.9578 28.9939 58.6917 28.7456 58.3128 28.6298C57.8548 28.4879 57.3801 28.4571 56.9005 28.4997C56.1596 28.5659 55.4234 28.6558 54.6801 28.696C53.8289 28.7433 52.9728 28.7906 52.1216 28.7575C50.9755 28.7125 49.9156 28.3744 49.0164 27.6389C48.1724 26.9508 47.8199 26.0286 47.7 24.9881C47.5322 23.5361 47.8127 22.1362 48.194 20.7528C48.7119 18.8658 49.4504 17.0568 50.3113 15.2998C51.2128 13.4577 52.2127 11.6628 53.0832 9.80651C54.3108 7.18876 55.8407 4.74126 57.2674 2.23465C57.7373 1.407 58.4327 0.891485 59.3343 0.621906C60.267 0.342868 61.2046 0.31922 62.1422 0.591164C62.2117 0.612447 62.2812 0.633729 62.3508 0.659741C63.7271 1.14451 64.3937 2.26539 63.6792 3.767C63.3315 4.4977 62.9454 5.20948 62.6049 5.94255C61.9623 7.31882 61.3533 8.71165 60.7035 10.0856C60.1735 11.2088 59.6148 12.3202 59.049 13.4269C58.3488 14.7937 57.699 16.1795 57.3585 17.6834C57.2578 18.128 57.1858 18.5844 57.1762 19.0384C57.1523 20.0647 57.711 20.8262 58.7109 21.1147C59.9529 21.4741 61.1471 21.2825 62.2788 20.6866C63.214 20.1948 63.9237 19.4499 64.5616 18.6341C65.4799 17.4611 66.2952 16.2173 67.0985 14.9664C68.6714 12.5165 70.254 10.069 71.8246 7.61914C72.8101 6.08207 73.7836 4.54026 74.7571 2.99846C75.1408 2.39309 75.5748 1.82792 76.1215 1.35497C76.6083 0.93405 77.155 0.638459 77.8024 0.529681C78.4906 0.41381 79.1667 0.480022 79.8262 0.671565C80.3153 0.815814 80.8021 0.986074 81.2624 1.20126C81.9171 1.50631 82.2336 2.04074 82.2408 2.76435C82.248 3.38154 82.1041 3.96563 81.8331 4.50716C81.3488 5.47906 80.8476 6.4415 80.3177 7.38976C78.1573 11.2608 75.7546 14.99 73.3664 18.7263C70.5945 23.0656 67.8754 27.4356 65.3241 31.9049C63.7199 34.7142 62.1446 37.5424 60.6387 40.4037C59.1425 43.2438 57.7301 46.1288 56.3154 49.009C55.3347 51.0001 54.4139 53.0219 53.4596 55.0249C53.1311 55.713 52.7403 56.3633 52.2007 56.919C51.4502 57.6946 50.5079 58.0848 49.4576 58.2409C49.002 58.3071 48.5369 58.3166 48.0741 58.352L48.0813 58.3473Z" fill="black"/>
</g>
<defs>
<clipPath id="clip0_102_39">
<rect width="183" height="59" fill="white"/>
</clipPath>
</defs>
</svg>
