<svg width="215" height="43" viewBox="0 0 215 43" fill="none" xmlns="http://www.w3.org/2000/svg">
<g clip-path="url(#clip0_102_49)">
<path d="M107.52 43C72.3053 43 37.0886 43 1.87433 43C0.626648 43 0.00280762 42.3655 0.00280762 41.0965C0.0123806 27.9604 0.0243469 14.8243 0.0387064 1.68819C0.0387064 0.0318066 0.0458861 0.0293599 1.6709 0.0293599C72.2598 0.0293599 142.849 0.0318065 213.44 0C214.677 0 215.003 0.386572 215 1.57565C214.972 14.8341 214.984 28.0925 214.977 41.351C214.977 42.9976 214.962 43 213.282 43C178.027 43 142.772 43 107.517 43H107.52ZM129.092 20.7012C129.131 20.6743 129.308 20.5275 129.504 20.4149C133.817 17.9462 133.551 11.1886 129.193 9.06486C127.532 8.25502 125.847 7.84398 124.028 7.85132C119.649 7.866 115.267 7.90026 110.887 7.82686C109.831 7.80973 109.602 8.15471 109.606 9.12358C109.633 17.4324 109.64 25.7413 109.609 34.0501C109.604 35.019 109.903 35.2979 110.834 35.2881C115.094 35.2441 119.357 35.3322 123.617 35.2245C125.306 35.1805 127.034 34.9334 128.659 34.4661C133.285 33.1351 135.351 27.5518 132.594 23.6812C131.732 22.4725 130.291 21.6945 129.092 20.7012ZM24.615 25.7633C25.1056 25.4648 25.5149 25.2299 25.9121 24.9755C30.8733 21.8119 31.5554 14.4279 27.2284 10.4228C25.2468 8.58777 22.7842 7.93451 20.1875 7.89536C15.6882 7.82686 11.1865 7.86845 6.68716 7.8709C6.50527 7.8709 6.32099 7.94185 6.09363 7.98834C6.09363 16.8403 6.10081 25.6336 6.08166 34.4269C6.08166 35.1854 6.45262 35.2784 7.05093 35.271C8.88177 35.2514 10.7174 35.2147 12.5458 35.2832C13.4864 35.3175 13.685 34.9334 13.6635 34.0721C13.6132 32.0879 13.6395 30.1012 13.6611 28.1145C13.6659 27.7696 13.6874 27.3169 13.8932 27.1041C14.3623 26.6196 16.8489 27.109 17.251 27.7182C18.7396 29.9642 20.1827 32.242 21.7239 34.4514C22.0063 34.8575 22.6525 35.2049 23.1431 35.2245C25.3306 35.3077 27.5228 35.2686 29.7126 35.2588C30.0357 35.2588 30.3612 35.1829 30.8853 35.1193C28.729 31.8995 26.6995 28.8706 24.6174 25.7633H24.615ZM33.5155 7.90026C33.4317 8.11067 33.3767 8.18407 33.3767 8.25747C33.3623 16.9749 33.3599 25.6923 33.3336 34.4122C33.3336 35.1585 33.6974 35.271 34.3029 35.271C40.9561 35.2637 47.6093 35.2612 54.2626 35.2808C54.9853 35.2808 55.2462 35.0141 55.2271 34.2777C55.1888 32.7779 55.172 31.2756 55.2366 29.7783C55.2749 28.8779 54.9901 28.577 54.0903 28.5867C50.7852 28.6283 47.4777 28.5941 44.1702 28.5916C43.1076 28.5916 42.0426 28.5916 40.9417 28.5916V24.5449C41.4156 24.5449 41.8057 24.5449 42.1982 24.5449C45.4243 24.5449 48.6528 24.5449 51.8789 24.5449C53.1202 24.5449 53.7393 23.934 53.7361 22.7123C53.7361 21.7385 53.6858 20.7623 53.748 19.7935C53.8174 18.7267 53.5039 18.3059 52.3552 18.3328C48.9711 18.4135 45.5823 18.3622 42.1958 18.3597C41.7746 18.3597 41.3558 18.323 40.8556 18.301C40.8556 17.359 40.9154 16.5467 40.8412 15.7467C40.7431 14.6971 41.0782 14.3374 42.1623 14.357C45.946 14.4255 49.7322 14.3888 53.5159 14.3912C53.9754 14.3912 54.4349 14.3912 54.9064 14.3912V7.90515H33.5107L33.5155 7.90026ZM99.5309 7.90515C99.5309 9.74993 99.5453 11.4455 99.5285 13.141C99.4878 16.9088 99.5524 20.684 99.3442 24.4421C99.1839 27.3438 97.2525 28.8901 94.474 28.7482C91.7145 28.6063 90.001 26.8521 89.8741 24.0335C89.8574 23.669 89.867 23.3044 89.867 22.9399C89.8622 18.2765 89.8717 13.6132 89.8311 8.94987C89.8287 8.57064 89.5008 7.87334 89.3069 7.86845C86.9352 7.7926 84.5611 7.81952 82.0913 7.81952C82.0913 9.99459 82.0841 11.9764 82.0913 13.9582C82.1104 17.7701 81.9381 21.5966 82.2205 25.389C82.5101 29.2938 84.1926 32.5699 87.8662 34.3584C91.2239 35.9928 94.7923 36.1861 98.3582 35.3762C103.894 34.1186 106.936 30.3948 107.096 24.6501C107.242 19.3408 107.18 14.0267 107.199 8.71499C107.199 8.44831 107.108 8.17918 107.058 7.91004H99.5309V7.90515ZM57.4647 7.69229C57.4647 10.6797 57.4647 13.3049 57.4647 15.9302C57.4647 21.9685 57.4839 28.0069 57.4552 34.0452C57.4504 35.0043 57.7615 35.3175 58.7021 35.2832C60.4922 35.2172 62.2847 35.2416 64.0773 35.271C64.7929 35.2832 65.0561 35.0386 65.0394 34.285C64.9939 32.4207 65.0657 30.5563 65.0059 28.6919C64.9748 27.7353 65.3002 27.4931 66.2336 27.4417C68.6388 27.3047 71.0895 27.2435 73.4253 26.7102C77.7643 25.7193 80.4615 21.7606 80.282 17.1584C80.1001 12.5147 77.1708 8.71499 72.6691 8.25013C67.7055 7.73878 62.6796 7.85377 57.4671 7.68984L57.4647 7.69229ZM189.273 25.3572C188.756 25.9419 188.347 26.4924 187.849 26.9499C185.236 29.3599 181.136 29.3281 178.939 26.8031C176.893 24.4519 176.452 21.6627 177.458 18.7463C179.09 14.0096 184.601 12.8278 188.079 16.4073C188.433 16.7718 188.658 17.2636 188.959 17.726C191.128 15.9962 192.963 14.5307 194.792 13.07C191.465 7.866 184.532 5.88421 178.085 8.20119C172.494 10.2099 168.658 16.3804 169.153 22.5606C169.708 29.4529 174.394 34.6447 181.002 35.6894C186.583 36.5702 193.112 33.6636 194.914 29.4186C193.093 28.1072 191.255 26.7836 189.273 25.3547V25.3572ZM143.437 7.86111C141.03 7.86111 138.771 7.83664 136.516 7.9027C136.301 7.91004 135.92 8.48011 135.918 8.79084C135.887 17.2636 135.901 25.7364 135.884 34.2092C135.884 34.9896 136.128 35.2808 136.911 35.2784C143.086 35.2563 149.258 35.2563 155.432 35.2784C156.217 35.2808 156.509 34.9603 156.502 34.2043C156.488 32.7852 156.423 31.3613 156.519 29.9495C156.603 28.7213 156.098 28.4277 154.997 28.4448C151.89 28.4938 148.784 28.4913 145.678 28.4424C143.457 28.4057 143.447 28.3568 143.445 26.0838C143.435 20.5299 143.44 14.976 143.437 9.42208C143.437 8.94742 143.437 8.47522 143.437 7.86111ZM159.269 7.87334C159.173 8.16694 159.128 8.24034 159.128 8.31619C159.116 16.9871 159.113 25.6556 159.094 34.3266C159.094 35.0826 159.424 35.293 160.111 35.2808C161.822 35.249 163.534 35.2661 165.247 35.2661C166.858 35.2661 166.848 35.2661 166.846 33.573C166.839 26.5634 166.839 19.5537 166.836 12.544C166.836 11.2889 166.887 10.0288 166.815 8.77861C166.798 8.46543 166.408 7.91738 166.178 7.91249C163.881 7.84643 161.581 7.87334 159.271 7.87334H159.269ZM197.341 29.7587C197.336 33.1351 199.832 35.7432 203.08 35.7481C206.234 35.753 208.893 33.1057 208.922 29.9324C208.95 26.6735 206.325 23.9675 203.13 23.9601C199.892 23.9528 197.35 26.5022 197.343 29.7587H197.341Z" fill="black"/>
<path d="M117.099 28.8901V24.2463C119.71 24.1509 122.221 23.7961 124.698 24.5252C125.722 24.8262 126.206 25.6409 126.117 26.7615C126.031 27.8355 125.315 28.6943 124.114 28.7971C122.264 28.9561 120.402 28.9635 118.542 29.0124C118.114 29.0246 117.683 28.9414 117.102 28.8901H117.099Z" fill="black"/>
<path d="M117.121 14.1221C119.1 14.1221 120.928 14.012 122.738 14.1514C124.688 14.3031 125.713 15.9913 124.731 17.4104C124.32 18.0074 123.401 18.4698 122.661 18.5579C121.094 18.7487 119.49 18.69 117.903 18.6411C117.635 18.6337 117.176 18.1737 117.157 17.8997C117.073 16.6984 117.121 15.4873 117.121 14.1196V14.1221Z" fill="black"/>
<path d="M13.663 14.6091C15.726 14.6091 17.631 14.4917 19.5145 14.6409C21.4745 14.7975 22.4414 16.126 22.3385 18.1127C22.2619 19.5929 20.9767 20.7282 19.2081 20.7991C17.6621 20.8603 16.1137 20.8774 14.5676 20.8456C14.2637 20.8383 13.7084 20.5276 13.7013 20.3416C13.6367 18.4601 13.6606 16.5738 13.6606 14.6091H13.663Z" fill="black"/>
<path d="M65.0389 21.4351C65.0389 19.1083 65.0174 17.0604 65.0676 15.0126C65.0724 14.7875 65.4888 14.3789 65.709 14.3814C67.2096 14.4009 68.7293 14.374 70.2011 14.6236C71.795 14.8927 72.5537 16.0426 72.6016 17.7431C72.647 19.397 71.9027 20.7035 70.3543 21.0045C68.7006 21.325 66.9822 21.2956 65.0389 21.4351Z" fill="black"/>
<path d="M205.236 31.2046C206.073 30.226 205.745 28.6112 207.361 28.2491C206.815 29.6412 206.293 31.0432 205.683 32.4084C205.626 32.5381 204.783 32.5332 204.721 32.3962C204.103 31.0236 203.575 29.6119 203.199 28.1096C204.685 28.5745 204.331 30.2871 205.233 31.2046H205.236Z" fill="black"/>
<path d="M200.226 32.6409C200.226 31.809 200.207 30.9747 200.231 30.1428C200.255 29.3819 200.191 28.7507 199.193 28.8192C199.073 28.8265 198.939 28.6088 198.793 28.4791C199.915 27.7549 201.978 27.8675 202.543 28.7409C200.985 28.6063 201.052 29.6095 201.148 30.664C201.188 31.1044 201.215 31.5644 201.124 31.9901C201.064 32.2763 200.791 32.5161 200.614 32.7779C200.485 32.7314 200.353 32.6874 200.224 32.6409H200.226Z" fill="black"/>
</g>
<defs>
<clipPath id="clip0_102_49">
<rect width="215" height="43" fill="white"/>
</clipPath>
</defs>
</svg>
