<svg width="304" height="57" viewBox="0 0 304 57" fill="none" xmlns="http://www.w3.org/2000/svg">
<path d="M86.4823 13.6888C86.4823 19.4137 82.646 22.3867 77.083 22.3867C71.52 22.3867 67.7161 19.3813 67.7161 13.6888V0.285889H70.851V12.982C70.851 17.1367 72.7718 19.5054 77.0884 19.5054C81.405 19.5054 83.3582 17.1367 83.3582 12.982V0.285889H86.4931V13.6834L86.4823 13.6888Z" fill="black"/>
<path d="M110.66 22.0953H107.526L94.7323 5.30929V22.0953H91.5974V0.285889H94.6352L107.52 17.2014V0.285889H110.655V22.0953H110.66Z" fill="black"/>
<path d="M118.911 22.0953H115.776V0.285889H118.911V22.0953Z" fill="black"/>
<path d="M137.488 3.00532H131.348V22.0953H128.213V3.00532H121.786V0.285889H137.488V3.00532Z" fill="black"/>
<path d="M153.027 22.0953H140.364V0.285889H152.741V3.00532H143.499V9.52872H151.911V12.2158H143.499V19.3813H153.027V22.1007V22.0953Z" fill="black"/>
<path d="M164.094 22.0953H156.545V0.285889H164.094C170.488 0.285889 175.447 4.63482 175.447 11.1906C175.447 17.7464 170.456 22.0953 164.094 22.0953ZM163.263 3.00532H159.68V19.3759H163.263C168.346 19.3759 172.188 16.5 172.188 11.1906C172.188 5.88123 168.351 3.00532 163.263 3.00532Z" fill="black"/>
<path d="M204.001 21.3616C202.08 22.063 200.002 22.3868 197.957 22.3868C191.337 22.3868 185.995 18.0702 185.995 11.1961C185.995 4.32196 191.337 0 197.957 0C199.97 0 202.112 0.318346 204.001 1.02518V4.16009C202.242 3.45864 200.067 2.8813 198.179 2.8813C193.285 2.8813 189.227 6.11333 189.227 11.1961C189.227 16.2788 193.29 19.5109 198.179 19.5109C200.067 19.5109 202.242 18.9335 204.001 18.2321V21.367V21.3616Z" fill="black"/>
<path d="M216.821 22.3868C210.524 22.3868 205.28 17.59 205.28 11.1961C205.28 4.80217 210.524 0 216.821 0C223.118 0 228.362 4.79678 228.362 11.1907C228.362 17.5846 223.118 22.3814 216.821 22.3814V22.3868ZM216.821 2.8813C212.186 2.8813 208.506 6.56117 208.506 11.1961C208.506 15.831 212.186 19.5109 216.821 19.5109C221.456 19.5109 225.136 15.831 225.136 11.1961C225.136 6.56117 221.456 2.8813 216.821 2.8813Z" fill="black"/>
<path d="M244.355 22.0953H232.204V0.285889H235.339V19.3759H244.355V22.0953Z" fill="black"/>
<path d="M256.22 22.3868C249.918 22.3868 244.673 17.59 244.673 11.1961C244.673 4.80217 249.918 0 256.22 0C262.522 0 267.762 4.79678 267.762 11.1907C267.762 17.5846 262.517 22.3814 256.22 22.3814V22.3868ZM256.22 2.8813C251.585 2.8813 247.905 6.56117 247.905 11.1961C247.905 15.831 251.585 19.5109 256.22 19.5109C260.855 19.5109 264.535 15.831 264.535 11.1961C264.535 6.56117 260.855 2.8813 256.22 2.8813Z" fill="black"/>
<path d="M288.195 22.0953H284.58L278.634 12.6636H274.733V22.0953H271.598V0.285889H278.823C282.691 0.285889 285.826 2.29849 285.826 6.45857C285.826 9.08088 284.45 11.2553 281.958 12.151L288.195 22.0953ZM278.763 3.00532H274.733V9.94419H278.763C281.003 9.94419 282.6 8.82728 282.6 6.45857C282.6 4.08986 281.035 3.00532 278.763 3.00532Z" fill="black"/>
<path d="M295.868 22.3867C293.915 22.3867 291.071 22.036 289.474 20.7896L290.915 18.0378C292.194 19.063 293.985 19.5108 295.582 19.5108C297.373 19.5108 300.249 18.8418 300.249 16.5702C300.249 14.6169 298.107 13.5648 296.602 12.8633C295.674 12.4155 294.746 11.9676 293.818 11.5522C291.39 10.4029 289.819 8.64389 289.819 5.82733C289.819 1.82912 293.24 0.00537109 296.823 0.00537109C298.485 0.00537109 300.659 0.388466 302.1 1.31653L301.14 3.97121C299.893 3.17265 298.264 2.88668 296.823 2.88668C295.096 2.88668 292.954 3.65287 292.954 5.73021C292.954 10.3058 303.379 9.50181 303.379 16.349C303.379 20.6331 299.64 22.3921 295.863 22.3921L295.868 22.3867Z" fill="black"/>
<path d="M77.9787 56.3797C71.6819 56.3797 66.4373 51.5829 66.4373 45.189C66.4373 38.7951 71.6819 33.9983 77.9787 33.9983C84.2754 33.9983 89.5255 38.7951 89.5255 45.189C89.5255 51.5829 84.2808 56.3797 77.9787 56.3797ZM77.9787 36.8742C73.3438 36.8742 69.6639 40.5541 69.6639 45.189C69.6639 49.8239 73.3438 53.5038 77.9787 53.5038C82.6136 53.5038 86.2934 49.8239 86.2934 45.189C86.2934 40.5541 82.6136 36.8742 77.9787 36.8742Z" fill="black"/>
<path d="M105.734 36.9982H96.4913V43.5216H104.903V46.2087H96.4913V56.0882H93.3564V34.2788H105.734V36.9982Z" fill="black"/>
<path d="M125.083 56.0882H116.93V34.2788H123.966C127.517 34.2788 130.776 35.8759 130.776 39.8418C130.776 41.9839 129.847 43.8076 127.835 44.6386V44.7033C130.392 45.2806 131.898 47.2609 131.898 49.9156C131.898 53.9785 128.925 56.0882 125.088 56.0882H125.083ZM123.934 36.9982H120.065V43.6835H123.934C125.914 43.6835 127.549 42.4047 127.549 40.3274C127.549 38.25 125.952 37.0036 123.934 37.0036V36.9982ZM124.252 46.3652H120.065V53.3688H124.252C126.556 53.3688 128.666 52.5055 128.666 49.8832C128.666 47.2609 126.491 46.3652 124.252 46.3652Z" fill="black"/>
<path d="M148.074 56.0882H135.411V34.2788H147.788V36.9982H138.546V43.5216H146.957V46.2087H138.546V53.3742H148.074V56.0936V56.0882Z" fill="black"/>
<path d="M170.65 56.0882H167.515L154.722 39.3022V56.0882H151.587V34.2788H154.625L167.51 51.1943V34.2788H170.645V56.0882H170.65Z" fill="black"/>
<path d="M188.429 56.0882H175.765V34.2788H188.143V36.9982H178.9V43.5216H187.312V46.2087H178.9V53.3742H188.429V56.0936V56.0882Z" fill="black"/>
<path d="M206.364 36.9982H200.224V56.0882H197.089V36.9982H190.662V34.2788H206.364V36.9982Z" fill="black"/>
<path d="M224.305 36.9982H218.164V56.0882H215.029V36.9982H208.603V34.2788H224.305V36.9982Z" fill="black"/>
<path d="M235.528 56.3797C229.226 56.3797 223.986 51.5829 223.986 45.189C223.986 38.7951 229.231 33.9983 235.528 33.9983C241.825 33.9983 247.069 38.7951 247.069 45.189C247.069 51.5829 241.825 56.3797 235.528 56.3797ZM235.528 36.8742C230.893 36.8742 227.213 40.5541 227.213 45.189C227.213 49.8239 230.893 53.5038 235.528 53.5038C240.163 53.5038 243.843 49.8239 243.843 45.189C243.843 40.5541 240.163 36.8742 235.528 36.8742Z" fill="black"/>
<path d="M269.969 56.0882H266.834L254.04 39.3022V56.0882H250.906V34.2788H253.943L266.828 51.1943V34.2788H269.963V56.0882H269.969Z" fill="black"/>
<path d="M276.044 56.3796C274.987 56.3796 274.123 55.5163 274.123 54.4587C274.123 53.4012 274.987 52.5378 276.044 52.5378C277.102 52.5378 277.965 53.4012 277.965 54.4587C277.965 55.5163 277.102 56.3796 276.044 56.3796Z" fill="black"/>
<path d="M32.8976 34.9749C34.3598 35.7897 35.5307 36.4426 36.8796 37.1872C42.2537 34.2681 47.6656 31.3274 53.4013 28.2141V34.6458C50.1584 36.448 46.7322 38.3526 42.9498 40.457C46.6243 42.4965 49.9696 44.3581 53.4498 46.2897V52.7268C47.8383 49.6782 42.5019 46.7753 37.0037 43.7807C35.617 44.4929 34.2141 45.2106 32.5361 46.0739C35.4605 48.3725 38.0829 50.5793 37.8131 54.707H32.0559C31.1979 52.0253 29.8059 49.7052 26.3472 49.9372C23.4443 50.1315 22.2033 52.1009 21.4587 54.7556H15.6745C15.2752 50.671 17.9083 48.421 20.8976 46.0955C19.349 45.2645 18.0324 44.5577 16.527 43.7483C11.1205 46.6836 5.70865 49.6135 0.0053957 52.7106V46.2897C3.28598 44.4714 6.71225 42.5721 10.4892 40.4731C6.777 38.412 3.42627 36.5451 0 34.6404V28.2087C5.6493 31.2735 10.991 34.1764 16.5108 37.171C17.7411 36.4965 19.036 35.7843 20.4821 34.9911C18.3778 33.5127 16.3813 32.3095 14.6116 30.831C8.80579 25.9749 6.98743 17.5252 10.3004 10.7482C12.8472 5.53598 17.1853 2.51439 22.8076 1.4946C29.6008 0.258986 35.7627 1.72662 40.5433 6.92268C46.9858 13.9155 45.966 25.0846 38.4606 31.144C36.8041 32.4821 34.9426 33.5774 32.8922 34.9749H32.8976ZM26.7627 32.0019C29.7789 29.7843 32.6656 28.0792 35.0343 25.8238C39.4965 21.5828 39.5181 14.0558 35.4012 9.75002C30.9983 5.1421 22.9641 4.98022 18.3724 9.4101C13.8238 13.7968 13.8076 21.572 18.626 26.0558C20.9569 28.2249 23.7843 29.8544 26.7627 32.0019ZM26.7141 42.7501C28.0415 42.0325 29.3202 41.3419 30.939 40.4624C29.2501 39.5451 28.0037 38.8652 26.7033 38.153C25.3922 38.8814 24.1188 39.5829 22.5001 40.4839C24.0972 41.3419 25.2627 41.9678 26.7141 42.7501Z" fill="black"/>
</svg>
