<svg width="26" height="27" viewBox="0 0 26 27" fill="none" xmlns="http://www.w3.org/2000/svg">
<path d="M13 2.43105C16.4734 2.43105 16.8848 2.44687 18.2508 2.51016C19.5203 2.56816 20.2059 2.78965 20.6629 2.97422C21.2672 3.2168 21.7039 3.51211 22.1559 3.98145C22.6129 4.45605 22.8922 4.9043 23.1258 5.53184C23.3035 6.00645 23.5168 6.72363 23.5727 8.03672C23.6336 9.46055 23.6488 9.8877 23.6488 13.4895C23.6488 17.0965 23.6336 17.5236 23.5727 18.9422C23.5168 20.2605 23.3035 20.9725 23.1258 21.4471C22.8922 22.0746 22.6078 22.5281 22.1559 22.9975C21.6988 23.4721 21.2672 23.7621 20.6629 24.0047C20.2059 24.1893 19.5152 24.4107 18.2508 24.4688C16.8797 24.532 16.4684 24.5479 13 24.5479C9.52656 24.5479 9.11524 24.532 7.74922 24.4688C6.47969 24.4107 5.79414 24.1893 5.33711 24.0047C4.73281 23.7621 4.29609 23.4668 3.84414 22.9975C3.38711 22.5229 3.10781 22.0746 2.87422 21.4471C2.69648 20.9725 2.4832 20.2553 2.42734 18.9422C2.36641 17.5184 2.35117 17.0912 2.35117 13.4895C2.35117 9.88242 2.36641 9.45527 2.42734 8.03672C2.4832 6.71836 2.69648 6.00645 2.87422 5.53184C3.10781 4.9043 3.39219 4.45078 3.84414 3.98145C4.30117 3.50684 4.73281 3.2168 5.33711 2.97422C5.79414 2.78965 6.48477 2.56816 7.74922 2.51016C9.11524 2.44687 9.52656 2.43105 13 2.43105ZM13 0C9.4707 0 9.02891 0.0158203 7.64258 0.0791016C6.26133 0.142383 5.31172 0.374414 4.48906 0.706641C3.63086 1.05469 2.90469 1.51348 2.18359 2.26758C1.45742 3.01641 1.01563 3.77051 0.680469 4.65645C0.360547 5.51602 0.137109 6.49687 0.0761719 7.93125C0.0152344 9.37617 0 9.83496 0 13.5C0 17.165 0.0152344 17.6238 0.0761719 19.0635C0.137109 20.4979 0.360547 21.484 0.680469 22.3383C1.01563 23.2295 1.45742 23.9836 2.18359 24.7324C2.90469 25.4813 3.63086 25.9453 4.48398 26.2881C5.31172 26.6203 6.25625 26.8523 7.6375 26.9156C9.02383 26.9789 9.46563 26.9947 12.9949 26.9947C16.5242 26.9947 16.966 26.9789 18.3523 26.9156C19.7336 26.8523 20.6832 26.6203 21.5059 26.2881C22.359 25.9453 23.0852 25.4813 23.8063 24.7324C24.5273 23.9836 24.9742 23.2295 25.3043 22.3436C25.6242 21.484 25.8477 20.5031 25.9086 19.0688C25.9695 17.6291 25.9848 17.1703 25.9848 13.5053C25.9848 9.84023 25.9695 9.38145 25.9086 7.9418C25.8477 6.50742 25.6242 5.52129 25.3043 4.66699C24.9844 3.77051 24.5426 3.01641 23.8164 2.26758C23.0953 1.51875 22.3691 1.05469 21.516 0.711914C20.6883 0.379687 19.7438 0.147656 18.3625 0.084375C16.9711 0.0158203 16.5293 0 13 0Z" fill="black"/>
<path d="M13 6.56543C9.31328 6.56543 6.32227 9.67148 6.32227 13.5C6.32227 17.3285 9.31328 20.4346 13 20.4346C16.6867 20.4346 19.6777 17.3285 19.6777 13.5C19.6777 9.67148 16.6867 6.56543 13 6.56543ZM13 17.9982C10.6082 17.9982 8.66836 15.9838 8.66836 13.5C8.66836 11.0162 10.6082 9.00176 13 9.00176C15.3918 9.00176 17.3316 11.0162 17.3316 13.5C17.3316 15.9838 15.3918 17.9982 13 17.9982Z" fill="black"/>
<path d="M21.5008 6.29107C21.5008 7.18755 20.8 7.91001 19.9418 7.91001C19.0785 7.91001 18.3828 7.18228 18.3828 6.29107C18.3828 5.39458 19.0836 4.67212 19.9418 4.67212C20.8 4.67212 21.5008 5.39985 21.5008 6.29107Z" fill="black"/>
</svg>
