<svg width="248" height="202" viewBox="0 0 248 202" fill="none" xmlns="http://www.w3.org/2000/svg">
<path d="M196.8 201.6C176 201.6 160.267 193.067 149.6 176C140.533 161.6 136 144 136 123.2C136 96.5334 142.667 72.5334 156 51.2C169.867 29.8667 190.667 12.8 218.4 0L225.6 14.4C209.067 21.3333 194.667 32.2667 182.4 47.2C170.667 62.1333 164.8 77.3334 164.8 92.8C164.8 99.2 165.6 104.8 167.2 109.6C175.733 102.667 185.6 99.2 196.8 99.2C211.2 99.2 223.2 104 232.8 113.6C242.933 122.667 248 134.933 248 150.4C248 164.8 242.933 177.067 232.8 187.2C223.2 196.8 211.2 201.6 196.8 201.6ZM60.8 201.6C40 201.6 24.2667 193.067 13.6 176C4.53333 161.6 0 144 0 123.2C0 96.5334 6.66667 72.5334 20 51.2C33.8667 29.8667 54.6667 12.8 82.4 0L89.6 14.4C73.0667 21.3333 58.6667 32.2667 46.4 47.2C34.6667 62.1333 28.8 77.3334 28.8 92.8C28.8 99.2 29.6 104.8 31.2 109.6C39.7333 102.667 49.6 99.2 60.8 99.2C75.2 99.2 87.2 104 96.8 113.6C106.933 122.667 112 134.933 112 150.4C112 164.8 106.933 177.067 96.8 187.2C87.2 196.8 75.2 201.6 60.8 201.6Z" fill="#DCDEC4"/>
</svg>
