<svg width="145" height="244" viewBox="0 0 145 244" fill="none" xmlns="http://www.w3.org/2000/svg">
<path d="M142.21 77.3656C140.411 77.2082 138.677 77.0587 136.943 76.9033C132.901 76.542 128.862 76.1691 124.821 75.8195C118.993 75.3144 113.167 74.8094 107.338 74.3374C102.027 73.9062 96.7138 73.4712 91.3983 73.1274C86.3189 72.7991 81.2353 72.5563 76.1517 72.3368C69.4486 72.0474 62.7921 72.9156 56.1512 74.0267C47.6729 75.4446 39.1918 76.8392 30.7263 78.3911C21.5153 80.081 12.3213 81.9398 3.12016 83.7248C2.79625 83.787 2.47093 83.8258 2.05224 83.8899C1.70004 80.6481 1.35067 77.4374 0.98291 74.0616C19.3342 70.4042 37.6783 66.8516 56.3111 63.9362C55.8698 63.6817 55.6222 63.5361 55.3733 63.3962C48.9049 59.7427 42.902 54.9722 37.6331 48.6557C32.5636 42.5762 29.2029 34.97 27.9115 25.806C27.1901 20.6879 27.3216 15.6164 28.9497 10.8013C31.0926 4.45568 34.8466 0.912841 39.8099 0.376753C49.4976 -0.668229 57.3196 4.33914 63.1514 15.0512C66.9691 22.0631 69.3779 30.0131 71.0314 38.3924C71.9522 43.0598 72.5774 47.8399 73.3384 52.5676C73.3667 52.7483 73.4119 52.9231 73.5562 53.1037C73.8136 51.2682 74.0499 49.4268 74.3299 47.5972C75.8646 37.5844 78.0514 27.8979 81.9935 19.1126C84.6131 13.272 87.8649 8.24132 92.3063 4.92379C96.8751 1.51108 101.78 -0.0408513 106.991 0.530199C113.52 1.24692 118.553 8.06262 119.26 17.013C119.939 25.6059 118.006 33.2102 114.648 40.2764C111.88 46.1015 108.129 50.5087 103.923 54.2749C100.247 57.5672 96.4366 60.4905 92.3629 62.7513C92.2356 62.8232 92.1126 62.9087 91.8509 63.0757C108.88 64.5092 125.764 65.931 142.704 67.3586C142.534 70.7985 142.373 74.0442 142.209 77.3675L142.21 77.3656ZM66.392 57.1244C66.392 56.5863 66.4188 56.2989 66.3877 56.025C65.6465 49.4055 64.6225 42.8734 63.0213 36.5355C61.4074 30.1452 59.355 24.0676 56.0833 18.9087C52.045 12.5417 46.8823 9.79325 40.8156 10.2264C38.2738 10.409 36.336 12.0833 35.3827 15.4921C34.8423 17.4267 34.6952 19.4448 34.8169 21.4998C35.145 27.0918 36.8 31.9477 39.2003 36.3937C41.4705 40.6008 44.4607 43.6658 47.6164 46.4764C52.096 50.466 56.7439 53.9758 61.9406 55.8832C63.3791 56.4115 64.8643 56.7029 66.3905 57.1205L66.392 57.1244ZM80.5295 56.5456C80.8082 56.5456 80.9991 56.5883 81.1745 56.5397C83.0133 56.0133 84.8903 55.654 86.6782 54.9023C92.8042 52.3248 98.2315 47.8924 103.298 42.6034C105.913 39.8744 108.008 36.4656 109.595 32.5071C111.351 28.1271 112.447 23.5159 112.064 18.4153C111.733 14.014 109.834 11.0985 106.691 10.576C102.472 9.87483 98.5498 11.3025 94.9726 14.3597C91.7561 17.1081 89.4873 21.123 87.64 25.5807C83.6696 35.1642 81.8068 45.6703 80.5267 56.5456H80.5295Z" fill="#5F6C37"/>
<path d="M143.244 229.084C143.535 232.336 143.825 235.564 144.124 238.899C143.056 239.079 142.039 239.307 141.016 239.417C133.462 240.227 125.911 241.177 118.347 241.775C102.755 243.007 87.1422 243.287 71.5294 243.061C58.628 242.877 45.7267 242.455 32.8282 242.005C25.2269 241.738 17.6298 241.21 10.0299 240.793C9.2095 240.748 8.39053 240.659 7.45557 240.579C7.58428 237.308 7.71017 234.068 7.84172 230.718C8.14583 230.718 8.39336 230.706 8.64089 230.718C19.6044 231.293 30.5665 231.984 41.5328 232.421C59.447 233.136 77.3669 233.416 95.2853 232.876C103.758 232.619 112.235 232.287 120.695 231.621C128.116 231.036 135.515 229.937 142.924 229.067C143.014 229.057 143.103 229.076 143.243 229.086L143.244 229.084Z" fill="#5F6C37"/>
<path d="M8.61524 210.216C9.74964 209.99 10.8147 209.777 11.9251 209.555C11.9505 209.291 11.9901 209.046 11.9944 208.8C12.1924 198.29 12.2476 187.782 11.8445 177.277C11.778 175.539 11.5743 173.81 11.4456 172.074C11.3833 171.237 11.1358 170.873 10.4583 170.908C8.93208 170.988 7.40304 170.934 5.83723 170.934C5.81177 170.741 5.77075 170.592 5.77641 170.446C5.8443 168.671 5.90371 166.894 6.00979 165.122C6.02818 164.829 6.23611 164.363 6.41009 164.31C11.8826 162.686 17.3481 160.913 23.0074 161.284C26.9806 161.544 30.7459 162.811 33.9525 166.249C38.5198 171.145 40.7151 177.573 40.4591 185.569C40.2582 191.857 39.1606 197.769 36.6824 203.109C33.2566 210.492 28.2735 214.982 22.2662 217.484C18.566 219.026 14.7682 219.642 10.9038 219.461C9.15981 219.38 9.14142 219.372 8.98583 217.002C8.84155 214.782 8.74112 212.556 8.61524 210.214V210.216ZM16.9719 170.456C16.9422 170.947 16.9125 171.198 16.9139 171.448C16.9761 183.637 17.0454 195.823 17.0978 208.011C17.1006 208.701 17.2208 208.967 17.7682 208.969C22.4841 208.98 26.2663 206.44 28.9991 201.153C31.8874 195.567 33.1307 189.219 33.1307 182.446C33.1307 176.916 30.9468 173.022 27.1193 171.301C26.2324 170.903 25.296 170.534 24.3738 170.491C21.9169 170.378 19.4543 170.452 16.9733 170.452L16.9719 170.456Z" fill="#5F6C37"/>
<path d="M60.536 91.335C62.0339 96.2782 63.4059 101.121 64.9604 105.85C66.505 110.551 68.2321 115.14 69.9718 120.039C70.2293 119.402 70.3778 119.085 70.4924 118.747C73.1431 110.929 75.798 103.117 78.4218 95.2818C78.6694 94.5437 78.9311 94.2038 79.5407 94.1824C82.3343 94.0834 85.1278 93.9222 88.0954 93.7726C87.4857 94.8409 86.9779 95.6683 86.5197 96.5424C82.2522 104.683 78.4699 113.252 74.7259 121.855C74.2548 122.937 73.8178 124.048 73.3199 125.105C73.0455 125.685 73.0384 126.192 73.2223 126.816C74.6297 131.619 76.7471 135.789 79.2592 139.604C80.8293 141.987 82.5464 144.147 84.5606 145.818C85.736 146.793 86.9666 147.591 88.3768 147.673C89.7842 147.754 90.8324 146.919 91.5481 145.291C92.3996 143.351 92.5877 141.178 92.7192 138.932C92.1945 138.752 91.7079 138.639 91.2496 138.417C90.5862 138.095 89.913 137.773 89.2977 137.314C87.333 135.85 86.5621 133.762 86.944 131.126C87.3429 128.374 88.6003 126.888 90.8522 126.519C91.2256 126.456 91.6018 126.412 91.9781 126.385C94.7589 126.19 96.6698 128.686 96.9174 132.923C97.1833 137.493 96.4718 141.819 94.8791 145.814C92.6839 151.32 88.7658 153.412 84.0486 151.402C77.7967 148.739 73.3185 143.071 70.2307 135.234C70.1076 134.923 70.003 134.599 69.8021 134.039C67.9506 139.039 66.157 143.879 64.3324 148.803C61.6265 147.733 58.881 146.649 56.137 145.565C56.0818 145.453 56.0266 145.338 55.9715 145.225C56.1907 145.045 56.4453 144.913 56.6264 144.674C60.4256 139.635 63.5813 133.888 66.4767 127.847C66.7469 127.286 66.5602 126.958 66.3876 126.556C63.587 120.045 60.7693 113.548 57.9871 107.021C56.311 103.09 54.6871 99.116 53.0421 95.1594C52.9276 94.8817 52.83 94.5903 52.6758 94.1747C55.3633 93.2035 58.0069 92.2498 60.5374 91.335H60.536Z" fill="#5F6C37"/>
<path d="M86.1054 206.178C86.1167 207.579 86.4958 208.694 87.1238 209.647C88.5184 211.765 90.3233 212.703 92.3446 212.788C94.5327 212.881 96.5781 212.118 98.4437 210.483C102.782 206.681 101.588 198.599 98.6927 195.435C97.3631 193.984 95.8737 192.967 94.2711 192.285C91.6006 191.147 88.889 190.177 86.2397 188.956C85.0304 188.398 83.8535 187.559 82.7899 186.582C81.1236 185.052 80.3131 182.763 80.241 179.994C80.0331 172.088 83.0317 166.18 88.6783 163.585C93.4804 161.376 98.2641 161.613 102.974 164.165C103.648 164.531 104.305 164.997 104.913 165.539C108.007 168.289 108.109 174.015 105.099 176.999C103.404 178.679 101.534 178.954 99.6177 177.762C97.9685 176.736 97.612 174.819 98.6163 172.762C98.7337 172.521 98.8568 172.283 98.9727 172.04C99.8186 170.253 99.5725 169.115 98.1057 168.359C96.5413 167.553 94.9104 167.26 93.2484 167.561C92.6232 167.673 91.9909 167.856 91.3983 168.149C88.0715 169.796 87.1591 175.301 89.7448 178.648C90.6203 179.782 91.7887 180.664 92.9358 181.19C95.1834 182.222 97.5158 182.892 99.8016 183.772C100.909 184.197 102.003 184.708 103.078 185.271C109.846 188.816 110.376 198.994 107.728 204.939C106.547 207.589 104.979 209.712 103.065 211.314C97.9359 215.61 92.4365 217.495 86.4533 215.76C84.193 215.104 82.1081 213.833 80.3796 211.658C78.4913 209.282 77.6483 206.344 78.1009 202.841C78.5366 199.471 80.2382 197.183 82.6908 196.572C85.0841 195.975 87.278 196.684 89.2271 198.677C90.2936 199.769 90.7363 201.264 90.568 203.102C90.3346 205.652 88.7674 207.14 86.9583 206.501C86.6924 206.408 86.4279 206.301 86.1054 206.18V206.178Z" fill="#5F6C37"/>
<path d="M20.627 127.818C20.743 130.036 20.7586 132.167 20.9806 134.257C21.586 139.953 22.2989 145.629 22.1448 151.419C22.1235 152.227 22.0783 153.033 22.0401 153.841C22.0358 153.934 22.0047 154.024 21.975 154.168C19.0683 153.42 16.1686 152.674 13.2478 151.922C13.5179 150.533 13.8673 149.009 14.1064 147.451C14.9267 142.092 15.0654 136.648 14.733 131.225C14.2209 122.884 13.5123 114.565 12.8885 106.238C12.7315 104.148 12.5801 102.056 12.4231 99.9663C12.4019 99.6847 12.3651 99.4069 12.3255 99.0398C11.6084 99.17 10.9436 99.2923 10.2335 99.4205C9.97612 97.8239 9.7003 96.2914 9.5051 94.7395C9.47115 94.4637 9.71868 93.9315 9.92237 93.8207C11.5589 92.9389 13.1785 91.9289 14.873 91.3384C19.6723 89.6661 24.5338 89.2154 29.425 90.5964C31.947 91.3073 34.2992 92.5854 36.2682 94.9415C39.2329 98.4882 40.2159 103.138 40.1466 108.348C40.0363 116.527 36.5751 122.989 30.6655 126.083C27.8281 127.569 24.8874 128.103 21.8661 127.905C21.5196 127.882 21.173 127.856 20.627 127.818ZM18.0555 96.138C18.0909 96.5458 18.1149 96.8644 18.1461 97.181C18.4516 100.384 18.7557 103.589 19.0626 106.792C19.528 111.628 19.9891 116.467 20.4757 121.299C20.5026 121.561 20.719 121.965 20.8802 121.998C24.6639 122.789 29.0035 121.13 31.2044 115.344C32.5114 111.91 32.7292 108.254 32.2228 104.496C31.6245 100.063 29.78 97.0955 26.6215 95.7611C23.7728 94.5569 20.9538 95.0133 18.0555 96.136V96.138Z" fill="#5F6C37"/>
<path d="M133.535 102.076C132.15 102.076 130.883 102.063 129.614 102.078C126.767 102.115 123.921 102.172 121.074 102.205C120.522 102.21 120.216 102.484 120.147 103.296C119.876 106.505 119.58 109.71 119.28 112.913C119.215 113.606 119.361 113.925 119.893 114.109C123.334 115.302 126.744 115.154 130.139 113.8C130.406 113.694 130.674 113.589 131.054 113.437C131.174 116.172 131.292 118.825 131.408 121.467C130.287 121.245 129.211 120.972 128.126 120.828C125.345 120.459 122.641 121.158 119.96 122.067C119.743 122.141 119.474 122.516 119.419 122.815C119.231 123.844 119.042 124.897 119.006 125.95C118.846 130.464 119.166 134.925 119.926 139.323C119.98 139.632 120.057 139.935 120.146 140.348C126.797 140.11 133.411 139.762 139.805 136.396C139.596 139.696 139.391 142.938 139.189 146.117C129.897 146.974 120.658 147.826 111.358 148.685C111.812 146.267 112.266 144.134 112.611 141.968C113.706 135.108 114.075 128.139 113.89 121.146C113.683 113.297 113.276 105.46 112.956 97.6168C112.922 96.7855 112.895 95.9522 112.865 95.0956C116.43 94.8722 119.931 94.7654 123.417 94.4002C126.91 94.0331 130.388 93.4077 133.985 92.8794C133.836 95.9095 133.685 98.9842 133.534 102.073L133.535 102.076Z" fill="#5F6C37"/>
<path d="M74.4161 159.428C74.3298 167.355 74.3213 175.148 74.1262 182.931C74.0271 186.874 73.426 190.751 72.3227 194.439C70.2887 201.249 66.5291 204.813 61.2545 205.464C58.6519 205.784 56.0677 205.598 53.6037 204.273C48.8511 201.721 46.3107 196.661 45.5483 189.97C45.1763 186.712 45.3687 183.337 45.2852 180.013C45.182 175.915 45.1013 171.815 44.9161 167.724C44.8651 166.601 44.4804 165.508 44.2385 164.348C46.9939 163.826 49.8271 163.288 52.8257 162.721C52.656 164.41 52.5188 165.964 52.3406 167.508C51.7819 172.356 51.1312 177.189 50.663 182.055C50.2938 185.881 50.2783 189.74 51.1397 193.493C52.1171 197.749 54.3915 200.109 57.6222 200.274C62.0975 200.501 64.7879 197.512 65.836 191.112C66.5701 186.633 66.4781 182.111 66.0439 177.605C65.7667 174.726 65.406 171.853 64.9321 169.023C64.4654 166.232 63.8105 163.499 63.2192 160.652C66.8219 159.628 70.5207 159.419 74.4147 159.43L74.4161 159.428Z" fill="#5F6C37"/>
<path d="M108.495 161.802C120.14 162.451 131.641 161.178 143.162 158.5C143.264 160.809 143.378 163.369 143.497 166.069C142.934 166.203 142.392 166.351 141.846 166.46C138.588 167.114 135.326 167.734 132.071 168.423C131.098 168.629 130.15 169.041 129.184 169.319C128.719 169.453 128.532 169.736 128.548 170.432C128.675 176.053 128.606 181.696 128.931 187.295C129.282 193.309 129.92 199.299 130.579 205.27C131.026 209.325 131.863 213.27 133.214 217.071H124.207C124.207 216.699 124.211 216.324 124.207 215.949C124.115 208.479 124.112 201.004 123.903 193.54C123.705 186.485 123.068 179.495 121.259 172.809C121.201 172.598 121.126 172.392 121.086 172.174C120.956 171.461 120.666 171.236 120.116 171.325C116.939 171.848 113.757 172.31 110.577 172.817C109.331 173.015 109.348 173.038 109.048 171.308C108.526 168.295 108.45 165.23 108.454 162.154C108.454 161.998 108.488 161.843 108.493 161.802H108.495Z" fill="#5F6C37"/>
<path d="M97.7592 96.8913C100.485 96.1571 103.31 95.3977 106.112 94.6421C105.157 105.609 105.239 116.55 105.529 127.483C105.66 132.448 106.035 137.409 106.428 142.35C106.584 144.308 107.093 146.211 107.467 148.284C104.738 149.096 101.82 149.966 98.8823 150.84C99.0436 149.125 99.2953 147.488 99.3335 145.84C99.4806 139.574 99.7211 133.301 99.6207 127.039C99.5004 119.613 99.1214 112.191 98.7352 104.779C98.6008 102.19 98.1086 99.6359 97.7578 96.8874L97.7592 96.8913Z" fill="#5F6C37"/>
<path d="M52.5811 148.258C49.7253 149.103 46.7974 149.969 43.8341 150.847C44.6616 144.808 44.6573 138.859 44.6743 132.917C44.7026 123.209 44.547 113.509 43.6516 103.865C43.438 101.569 43.0505 99.3047 42.7266 96.902C45.4324 96.1717 48.2614 95.4083 51.1016 94.6411C50.963 96.533 50.748 98.3724 50.7056 100.221C50.5542 106.88 50.3364 113.54 50.3845 120.199C50.4269 126.239 50.7395 132.28 51.0224 138.313C51.1242 140.496 51.4382 142.67 51.7508 144.822C51.9178 145.975 52.2883 147.073 52.5825 148.26L52.5811 148.258Z" fill="#5F6C37"/>
</svg>
