<svg width="52" height="51" viewBox="0 0 52 51" fill="none" xmlns="http://www.w3.org/2000/svg">
<path d="M0.200001 2.4V0H10.2V2.4H0.200001ZM10.6 2.4V0H20.6V2.4H10.6ZM21 2.4V0H31V2.4H21ZM31.4 2.4V0H41.4V2.4H31.4ZM41.8 2.4V0H51.8V2.4H41.8ZM0.200001 26.4V24H10.2V26.4H0.200001ZM10.6 26.4V24H20.6V26.4H10.6ZM21 26.4V24H31V26.4H21ZM31.4 26.4V24H41.4V26.4H31.4ZM41.8 26.4V24H51.8V26.4H41.8ZM0.200001 50.4V48H10.2V50.4H0.200001ZM10.6 50.4V48H20.6V50.4H10.6ZM21 50.4V48H31V50.4H21ZM31.4 50.4V48H41.4V50.4H31.4ZM41.8 50.4V48H51.8V50.4H41.8Z" fill="black"/>
</svg>
