<svg width="1225" height="466" viewBox="0 0 1225 466" fill="none" xmlns="http://www.w3.org/2000/svg">
<path d="M471.41 42.5C466.91 24 455.91 12 437.91 5.49999C428.91 1.99998 413.41 1.49999 399.91 3.49999C374.41 7.99999 336.41 23.5 300.41 44C265.41 64 217.91 98 179.91 132C174.41 137.5 169.41 141 169.41 140.5C168.91 139 186.41 104.5 217.41 46.5C234.91 13.5 238.91 9.49998 232.91 3.49999C230.91 1.49999 229.41 0.5 227.41 0.5C221.91 0.5 219.41 3 215.91 11C213.91 15 208.41 26.5 203.41 36C175.41 88.5 168.41 108 148.91 146.5C137.41 169.5 126.41 190.5 124.91 193C123.41 195.5 116.41 204 109.41 212.5C52.9102 278.5 8.91021 345 -20.0898 404.5C-26.0898 416 -46.5898 456 -31.0898 465C-6.0898 480 76.9102 322.5 134.91 208.5C141.41 195.5 147.91 183.5 148.91 181.5C154.41 175 196.41 135 213.41 120.5C254.91 84 286.91 62 326.91 42.5C360.91 26 390.41 18 412.41 19.5C420.91 20.5 431.41 23 436.91 26C444.41 29.5 450.91 38 452.91 47.5C454.41 53 453.91 67.5 452.41 76C443.41 124 396.91 186 339.91 226C297.91 255.5 261.91 269.5 226.91 269.5C202.91 269.5 188.91 262 179.91 243.5C176.41 237 176.41 236.5 176.41 227.5V217.5L179.91 213C181.91 210 183.41 206.5 183.91 204.5C184.41 202 183.91 201 181.41 198.5C178.91 196 178.41 196 175.41 196.5C171.41 197 166.91 201 163.41 207.5C161.41 212 161.41 214 160.91 223C160.91 231.5 160.91 234.5 162.41 240.5C166.91 257 177.91 271 191.91 278C214.41 290 243.41 290 279.91 278C322.41 264 360.41 239.5 397.91 202C406.91 193 418.41 180.5 422.91 174.5C448.41 142.5 465.91 108.5 471.41 80C473.91 69 473.91 50.5 471.41 42.5ZM51.9102 332C30.9102 369 20.4102 386.5 2.41021 413.5C-6.08979 426 -16.0898 437.5 -17.0898 438C-18.5898 439.5 -18.5898 439 -18.0898 436.5C-16.0898 429.5 -5.58979 404 3.41021 386.5C26.4102 341.5 64.4102 285 97.4102 246.5C98.4102 247.5 79.9102 282 51.9102 332Z" fill="#F0ECDB"/>
<path d="M435.023 294C435.023 310.5 446.023 322 462.523 322C508.523 322 605.023 267.5 647.023 255.5C650.023 254.5 659.523 253 659.523 248.5C659.523 245 655.523 244.5 653.023 244.5C630.523 244.5 520.023 311.5 470.023 311.5C462.023 311.5 449.023 310 449.023 299C449.023 272 486.023 227 486.023 223.5C486.023 219.5 482.523 215.5 478.023 215.5C458.023 215.5 435.023 276.5 435.023 294ZM488.023 178C488.023 184 492.523 189.5 498.523 189.5C505.523 189.5 511.023 183 511.023 176.5C511.023 170.5 507.023 166 501.023 166C494.523 166 488.023 171 488.023 178Z" fill="#F0ECDB"/>
<path d="M612.266 324.5C616.766 329 619.766 327.5 627.766 317C631.266 313.5 636.266 308 639.266 305C646.766 299.5 662.266 288.5 663.766 288.5C667.266 296.5 689.266 365 787.266 286.5C793.766 281.5 801.766 275 805.266 272C815.766 263.5 826.766 252.5 827.266 249.5C828.266 246.5 827.266 244.5 824.766 244.5C821.766 244.5 817.766 247.5 804.766 260C790.766 273.5 772.266 288.5 760.266 296.5C727.766 318.5 701.266 318 684.266 296C679.266 290 675.266 281.5 675.766 280C675.766 279.5 682.266 274 689.766 268.5C708.266 254 723.266 241.5 728.766 235.5C734.266 230 742.766 217 745.266 211C747.266 206.5 748.266 199.5 747.766 196.5C746.766 193.5 743.266 191.5 740.766 192C739.266 192.5 738.766 193 739.266 197.5C739.766 201.5 739.766 203 737.266 208C731.766 220.5 722.266 231 704.266 246C688.766 258 673.766 269 672.266 268.5C671.766 268 670.766 266.5 670.766 265C670.266 263.5 669.266 257 668.266 251.5C667.266 245.5 666.266 233 665.266 223.5C664.266 204 663.766 200.5 660.266 197.5C657.266 194.5 653.766 194.5 650.266 198C646.766 201 646.766 202 648.766 226C650.766 247.5 653.266 261.5 656.266 270.5C657.766 274.5 658.766 278 658.766 278.5C658.266 279 650.766 284 641.766 289.5C617.766 304.5 611.266 310.5 610.266 319C609.766 322 610.266 323 612.266 324.5Z" fill="#F0ECDB"/>
<path d="M805.141 294C805.141 310.5 816.141 322 832.641 322C878.641 322 975.141 267.5 1017.14 255.5C1020.14 254.5 1029.64 253 1029.64 248.5C1029.64 245 1025.64 244.5 1023.14 244.5C1000.64 244.5 890.141 311.5 840.141 311.5C832.141 311.5 819.141 310 819.141 299C819.141 272 856.141 227 856.141 223.5C856.141 219.5 852.641 215.5 848.141 215.5C828.141 215.5 805.141 276.5 805.141 294ZM858.141 178C858.141 184 862.641 189.5 868.641 189.5C875.641 189.5 881.141 183 881.141 176.5C881.141 170.5 877.141 166 871.141 166C864.641 166 858.141 171 858.141 178Z" fill="#F0ECDB"/>
<path d="M1216.88 246.5C1189.88 268 1103.88 317.5 1052.88 317.5C1030.38 317.5 1022.88 303.5 1022.88 289C1022.88 284 1024.38 271.5 1027.38 267.5C1045.38 260 1092.88 242.5 1092.88 218C1092.88 207.5 1084.38 201.5 1075.38 201.5C1041.88 201.5 1005.38 254.5 1005.38 287C1005.38 307.5 1019.88 328.5 1048.38 328.5C1097.88 328.5 1175.38 283 1220.88 254C1229.38 248.5 1221.88 242.5 1216.88 246.5ZM1076.88 216.5C1078.88 216.5 1081.38 218 1081.38 220C1081.38 230.5 1047.38 248.5 1037.88 248.5H1036.38C1044.38 238 1062.88 216.5 1076.88 216.5Z" fill="#F0ECDB"/>
</svg>
