<svg width="248" height="202" viewBox="0 0 248 202" fill="none" xmlns="http://www.w3.org/2000/svg">
<path d="M51.2 201.6C72 201.6 87.7333 193.067 98.4 176C107.467 161.6 112 144 112 123.2C112 96.5334 105.333 72.5334 92 51.2C78.1333 29.8667 57.3333 12.8 29.6 0L22.4 14.4C38.9333 21.3333 53.3333 32.2667 65.6 47.2C77.3333 62.1333 83.2 77.3334 83.2 92.8C83.2 99.2 82.4 104.8 80.8 109.6C72.2667 102.667 62.4 99.2 51.2 99.2C36.8 99.2 24.8 104 15.2 113.6C5.06665 122.667 0 134.933 0 150.4C0 164.8 5.06665 177.067 15.2 187.2C24.8 196.8 36.8 201.6 51.2 201.6ZM187.2 201.6C208 201.6 223.733 193.067 234.4 176C243.467 161.6 248 144 248 123.2C248 96.5334 241.333 72.5334 228 51.2C214.133 29.8667 193.333 12.8 165.6 0L158.4 14.4C174.933 21.3333 189.333 32.2667 201.6 47.2C213.333 62.1333 219.2 77.3334 219.2 92.8C219.2 99.2 218.4 104.8 216.8 109.6C208.267 102.667 198.4 99.2 187.2 99.2C172.8 99.2 160.8 104 151.2 113.6C141.067 122.667 136 134.933 136 150.4C136 164.8 141.067 177.067 151.2 187.2C160.8 196.8 172.8 201.6 187.2 201.6Z" fill="#DCDEC4"/>
</svg>
